<?xml version="1.0" encoding="utf-8"?>
<!-- Generator: Adobe Illustrator 28.1.0, SVG Export Plug-In . SVG Version: 6.00 Build 0)  -->
<svg version="1.1" id="Layer_1" xmlns="http://www.w3.org/2000/svg" xmlns:xlink="http://www.w3.org/1999/xlink" x="0px" y="0px"
	 viewBox="0 0 141.7 141.7" style="enable-background:new 0 0 141.7 141.7;" xml:space="preserve">
<style type="text/css">
	.st0{fill:#EF92FF;}
	.st1{fill:#FFFFFF;}
</style>
<g>
	<path class="st0" d="M131.4,140.7v-0.4h-121c-2.5,0-4.7-1-6.3-2.6s-2.6-3.9-2.6-6.3v-121c0-2.5,1-4.7,2.6-6.3S8,1.5,10.4,1.5h121
		c2.5,0,4.7,1,6.3,2.6s2.6,3.9,2.6,6.3v121c0,2.5-1,4.7-2.6,6.3s-3.9,2.6-6.3,2.6V140.7v0.4c5.4,0,9.8-4.4,9.8-9.8v-121
		c0-5.4-4.4-9.8-9.8-9.8h-121C5,0.6,0.6,5,0.6,10.4v121c0,5.4,4.4,9.8,9.8,9.8h121V140.7z"/>
	<polyline class="st1" points="17.2,100 17.2,100 17.2,101.2 17.2,101.2 	"/>
	<polyline class="st1" points="11.5,104.6 11.5,109.3 12.7,109.3 12.7,104.6 	"/>
	<polyline class="st1" points="10.5,96.3 10.5,101 11.8,101 11.8,96.3 	"/>
	<polyline class="st1" points="14.2,89.4 14.2,94 15.4,94 15.4,89.4 	"/>
	<path class="st1" d="M15.1,88.7c-0.7-0.4-1.2-0.8-1.5-1.2c-0.3-0.4-0.5-0.8-0.5-1.1h-1.3c0,0.7,0.3,1.3,0.7,1.9
		c0.5,0.6,1.1,1.1,1.8,1.5L15.1,88.7z"/>
	<polyline class="st1" points="11.9,81.7 11.9,86.4 13.2,86.4 13.2,81.7 	"/>
	<polyline class="st1" points="13.2,81.9 13.2,77.2 11.9,77.2 11.9,81.9 	"/>
</g>
<g>
	<g>
		<path class="st1" d="M33.6,113.1h1.1c0-1.4,0.6-2.6,1.5-3.5c0.9-0.9,2.1-1.5,3.5-1.5c1.4,0,2.6,0.6,3.5,1.5
			c0.9,0.9,1.5,2.1,1.5,3.5c0,1.4-0.6,2.6-1.5,3.5c-0.9,0.9-2.1,1.5-3.5,1.5c-1.4,0-2.6-0.6-3.5-1.5c-0.9-0.9-1.5-2.1-1.5-3.5H33.6
			h-1.1c0,3.9,3.2,7.1,7.1,7.1c3.9,0,7.1-3.2,7.1-7.1c0-3.9-3.2-7.1-7.1-7.1c-3.9,0-7.1,3.2-7.1,7.1H33.6z"/>
		<path class="st1" d="M27.5,132.9c0-4.8,2.8-8.9,6.8-10.9l-0.5-1l-0.5,0.9c1.9,1,4,1.6,6.3,1.6c2.3,0,4.5-0.6,6.3-1.6l-0.5-0.9
			l-0.5,1c4,2,6.8,6.1,6.8,10.9c0,0.6,0.5,1.1,1.1,1.1c0.6,0,1.1-0.5,1.1-1.1c0-5.6-3.3-10.5-8-12.8l-0.5-0.2l-0.5,0.3
			c-1.6,0.9-3.4,1.4-5.3,1.4c-1.9,0-3.7-0.5-5.3-1.4l-0.5-0.3l-0.5,0.2c-4.7,2.3-8,7.2-8,12.8c0,0.6,0.5,1.1,1.1,1.1
			C27,134,27.5,133.5,27.5,132.9z"/>
	</g>
	<g>
		<path class="st1" d="M64.3,113.1h1.1c0-1.4,0.6-2.6,1.5-3.5c0.9-0.9,2.1-1.5,3.5-1.5c1.4,0,2.6,0.6,3.5,1.5
			c0.9,0.9,1.5,2.1,1.5,3.5c0,1.4-0.6,2.6-1.5,3.5c-0.9,0.9-2.1,1.5-3.5,1.5c-1.4,0-2.6-0.6-3.5-1.5c-0.9-0.9-1.5-2.1-1.5-3.5H64.3
			h-1.1c0,3.9,3.2,7.1,7.1,7.1c3.9,0,7.1-3.2,7.1-7.1c0-3.9-3.2-7.1-7.1-7.1c-3.9,0-7.1,3.2-7.1,7.1H64.3z"/>
		<path class="st1" d="M58.2,132.9c0-4.8,2.8-8.9,6.8-10.9l-0.5-1L64,122c1.9,1,4,1.6,6.3,1.6c2.3,0,4.5-0.6,6.3-1.6l-0.5-0.9
			l-0.5,1c4,2,6.8,6.1,6.8,10.9c0,0.6,0.5,1.1,1.1,1.1c0.6,0,1.1-0.5,1.1-1.1c0-5.6-3.3-10.5-8-12.8l-0.5-0.2l-0.5,0.3
			c-1.6,0.9-3.4,1.4-5.3,1.4c-1.9,0-3.7-0.5-5.3-1.4l-0.5-0.3l-0.5,0.2c-4.7,2.3-8,7.2-8,12.8c0,0.6,0.5,1.1,1.1,1.1
			C57.7,134,58.2,133.5,58.2,132.9z"/>
	</g>
	<g>
		<path class="st1" d="M95.1,113.1h1.1c0-1.4,0.6-2.6,1.5-3.5c0.9-0.9,2.1-1.5,3.5-1.5c1.4,0,2.6,0.6,3.5,1.5
			c0.9,0.9,1.5,2.1,1.5,3.5c0,1.4-0.6,2.6-1.5,3.5c-0.9,0.9-2.1,1.5-3.5,1.5c-1.4,0-2.6-0.6-3.5-1.5c-0.9-0.9-1.5-2.1-1.5-3.5H95.1
			h-1.1c0,3.9,3.2,7.1,7.1,7.1c3.9,0,7.1-3.2,7.1-7.1c0-3.9-3.2-7.1-7.1-7.1c-3.9,0-7.1,3.2-7.1,7.1H95.1z"/>
		<path class="st1" d="M89,132.9c0-4.8,2.8-8.9,6.8-10.9l-0.5-1l-0.5,0.9c1.9,1,4,1.6,6.3,1.6c2.3,0,4.5-0.6,6.3-1.6l-0.5-0.9
			l-0.5,1c4,2,6.8,6.1,6.8,10.9c0,0.6,0.5,1.1,1.1,1.1c0.6,0,1.1-0.5,1.1-1.1c0-5.6-3.3-10.5-8-12.8l-0.5-0.2l-0.5,0.3
			c-1.6,0.9-3.4,1.4-5.3,1.4c-1.9,0-3.7-0.5-5.3-1.4l-0.5-0.3l-0.5,0.2c-4.7,2.3-8,7.2-8,12.8c0,0.6,0.5,1.1,1.1,1.1
			C88.5,134,89,133.5,89,132.9z"/>
	</g>
	<g>
		<path class="st0" d="M80.3,19.3h1c0-5.3-4.3-9.6-9.6-9.6c-5.3,0-9.6,4.3-9.6,9.6c0,5.3,4.3,9.6,9.6,9.6c5.3,0,9.6-4.3,9.6-9.6
			H80.3h-1c0,2.1-0.8,4-2.2,5.3c-1.4,1.4-3.3,2.2-5.3,2.2c-2.1,0-4-0.8-5.3-2.2c-1.4-1.4-2.2-3.3-2.2-5.3c0-2.1,0.8-4,2.2-5.3
			c1.4-1.4,3.3-2.2,5.3-2.2c2.1,0,4,0.8,5.3,2.2c1.4,1.4,2.2,3.3,2.2,5.3H80.3z"/>
		<path class="st0" d="M88.6,41.4h-1c0,1.4-0.2,2.8-0.6,4.2l1,0.3v-1H55.5v1l1-0.3c-0.4-1.3-0.6-2.7-0.6-4.2c0-5.7,3-10.6,7.4-13.4
			l-0.5-0.9l-0.8,0.7c2.4,2.7,5.8,4.4,9.7,4.4c3.9,0,7.3-1.7,9.7-4.4l-0.8-0.7L80.2,28c4.5,2.8,7.4,7.8,7.4,13.4H88.6h1
			c0-6.4-3.4-12-8.4-15.2l-0.7-0.5l-0.6,0.7c-2,2.3-4.9,3.7-8.2,3.7c-3.3,0-6.2-1.4-8.2-3.7L63,25.8l-0.7,0.5
			c-5,3.2-8.4,8.8-8.4,15.2c0,1.6,0.2,3.2,0.6,4.7l0.2,0.8h34.1l0.2-0.8c0.4-1.5,0.6-3.1,0.6-4.7H88.6z"/>
	</g>
	<g>
		<path class="st1" d="M71,56.9v15.5c0,0.4,0.3,0.7,0.7,0.7c0.4,0,0.7-0.3,0.7-0.7V56.9c0-0.4-0.3-0.7-0.7-0.7
			C71.4,56.2,71,56.5,71,56.9"/>
		<path class="st1" d="M64.9,74.5l6.8,6.6l7.1-6.6c0.3-0.3,0.3-0.8,0-1.1c-0.3-0.3-0.8-0.3-1.1,0L71.8,79L66,73.4
			c-0.3-0.3-0.8-0.3-1.1,0C64.6,73.7,64.6,74.2,64.9,74.5z"/>
	</g>
	<path class="st1" d="M47.9,107.5H49c0-1.4,0.6-2.6,1.5-3.5c0.9-0.9,2.1-1.5,3.5-1.5c1.4,0,2.6,0.6,3.5,1.5c0.9,0.9,1.5,2.1,1.5,3.5
		c0,1.4-0.6,2.6-1.5,3.5c-0.9,0.9-2.1,1.5-3.5,1.5c-1.4,0-2.6-0.6-3.5-1.5c-0.9-0.9-1.5-2.1-1.5-3.5H47.9h-1.1
		c0,3.9,3.2,7.1,7.1,7.1c3.9,0,7.1-3.2,7.1-7.1c0-3.9-3.2-7.1-7.1-7.1c-3.9,0-7.1,3.2-7.1,7.1H47.9z"/>
	<path class="st1" d="M80.9,107.5h1.1c0-1.4,0.6-2.6,1.5-3.5c0.9-0.9,2.1-1.5,3.5-1.5c1.4,0,2.6,0.6,3.5,1.5
		c0.9,0.9,1.5,2.1,1.5,3.5c0,1.4-0.6,2.6-1.5,3.5c-0.9,0.9-2.1,1.5-3.5,1.5c-1.4,0-2.6-0.6-3.5-1.5c-0.9-0.9-1.5-2.1-1.5-3.5H80.9
		h-1.1c0,3.9,3.2,7.1,7.1,7.1c3.9,0,7.1-3.2,7.1-7.1c0-3.9-3.2-7.1-7.1-7.1c-3.9,0-7.1,3.2-7.1,7.1H80.9z"/>
	<path class="st1" d="M65.7,96.6h1.1c0-1.4,0.6-2.6,1.5-3.5c0.9-0.9,2.1-1.5,3.5-1.5c1.4,0,2.6,0.6,3.5,1.5c0.9,0.9,1.5,2.1,1.5,3.5
		c0,1.4-0.6,2.6-1.5,3.5c-0.9,0.9-2.1,1.5-3.5,1.5c-1.4,0-2.6-0.6-3.5-1.5c-0.9-0.9-1.5-2.1-1.5-3.5H65.7h-1.1
		c0,3.9,3.2,7.1,7.1,7.1c3.9,0,7.1-3.2,7.1-7.1c0-3.9-3.2-7.1-7.1-7.1c-3.9,0-7.1,3.2-7.1,7.1H65.7z"/>
</g>
</svg>
