<?xml version="1.0" encoding="utf-8"?>
<!-- Generator: Adobe Illustrator 28.1.0, SVG Export Plug-In . SVG Version: 6.00 Build 0)  -->
<svg version="1.1" id="Layer_1" xmlns="http://www.w3.org/2000/svg" xmlns:xlink="http://www.w3.org/1999/xlink" x="0px" y="0px"
	 viewBox="0 0 141.7 141.7" style="enable-background:new 0 0 141.7 141.7;" xml:space="preserve">
<style type="text/css">
	.st0{fill:#FFFFFF;}
	.st1{fill:#EF92FF;}
</style>
<g>
	<path class="st0" d="M110.4,36.1v-0.7c-10,0-18.1,8.1-18.1,18.1c0,4.1,1.4,7.9,3.6,10.9l0.6-0.4l-0.7-0.1l-1.4,11.3l10.5-4.7
		l-0.3-0.6l-0.2,0.7c1.9,0.7,3.9,1,6.1,1c10,0,18.1-8.1,18.1-18.1c0-10-8.1-18.1-18.1-18.1V36.1v0.7c4.6,0,8.8,1.9,11.8,4.9
		c3,3,4.9,7.2,4.9,11.8c0,4.6-1.9,8.8-4.9,11.8c-3,3-7.2,4.9-11.8,4.9c-2,0-3.9-0.3-5.6-1l-0.3-0.1l-8.5,3.8l1.2-9.1l-0.2-0.2
		c-2.1-2.8-3.4-6.3-3.4-10c0-4.6,1.9-8.8,4.9-11.8c3-3,7.2-4.9,11.8-4.9V36.1z"/>
	<path class="st0" d="M82.7,84.8h0.7c0-1.6,0.7-3.1,1.7-4.1c1.1-1.1,2.5-1.7,4.1-1.7c1.6,0,3.1,0.7,4.1,1.7c1.1,1.1,1.7,2.5,1.7,4.1
		c0,1.6-0.7,3.1-1.7,4.1c-1.1,1.1-2.5,1.7-4.1,1.7c-1.6,0-3.1-0.7-4.1-1.7c-1.1-1.1-1.7-2.5-1.7-4.1H82.7H82c0,4,3.2,7.3,7.3,7.3
		c4,0,7.3-3.2,7.3-7.3c0-4-3.2-7.3-7.3-7.3c-4,0-7.3,3.2-7.3,7.3H82.7z"/>
	<path class="st0" d="M75.6,106.5c0-5.4,3.1-10.1,7.7-12.3l-0.3-0.6l-0.3,0.6c2,1.1,4.3,1.7,6.7,1.7c2.4,0,4.7-0.6,6.7-1.7l-0.3-0.6
		l-0.3,0.6c4.5,2.2,7.7,6.9,7.7,12.3c0,0.4,0.3,0.7,0.7,0.7s0.7-0.3,0.7-0.7c0-6-3.4-11.1-8.4-13.6l-0.3-0.2l-0.3,0.2
		c-1.8,1-3.8,1.5-6,1.5c-2.2,0-4.2-0.6-6-1.5l-0.3-0.2l-0.3,0.2c-5,2.4-8.5,7.6-8.5,13.6c0,0.4,0.3,0.7,0.7,0.7
		S75.6,106.9,75.6,106.5z"/>
	<path class="st1" d="M31.3,35.4v0.7c4.6,0,8.8,1.9,11.8,4.9c3,3,4.9,7.2,4.9,11.8c0,3.8-1.2,7.2-3.4,10l-0.2,0.2l1.2,9.1l-8.5-3.8
		l-0.3,0.1c-1.8,0.6-3.6,1-5.6,1c-4.6,0-8.8-1.9-11.8-4.9c-3-3-4.9-7.2-4.9-11.8c0-4.6,1.9-8.8,4.9-11.8c3-3,7.2-4.9,11.8-4.9V35.4
		v-0.7c-10,0-18.1,8.1-18.1,18.1c0,10,8.1,18.1,18.1,18.1c2.1,0,4.2-0.4,6.1-1l-0.2-0.7l-0.3,0.6l10.5,4.7l-1.4-11.3l-0.7,0.1
		l0.6,0.4c2.3-3,3.6-6.8,3.6-10.9c0-10-8.1-18.1-18.1-18.1V35.4z"/>
	<path class="st1" d="M57.9,84.8h0.7c0-4-3.2-7.3-7.3-7.3c-4,0-7.3,3.2-7.3,7.3c0,4,3.2,7.3,7.3,7.3c4,0,7.3-3.2,7.3-7.3H57.9h-0.7
		c0,1.6-0.7,3.1-1.7,4.1c-1.1,1.1-2.5,1.7-4.1,1.7c-1.6,0-3.1-0.7-4.1-1.7c-1.1-1.1-1.7-2.5-1.7-4.1c0-1.6,0.7-3.1,1.7-4.1
		c1.1-1.1,2.5-1.7,4.1-1.7c1.6,0,3.1,0.7,4.1,1.7c1.1,1.1,1.7,2.5,1.7,4.1H57.9z"/>
	<path class="st1" d="M37.7,106.5c0-5.4,3.1-10.1,7.7-12.3L45,93.5l-0.3,0.6c2,1.1,4.3,1.7,6.7,1.7c2.4,0,4.7-0.6,6.7-1.7l-0.3-0.6
		l-0.3,0.6c4.5,2.2,7.7,6.9,7.7,12.3c0,0.4,0.3,0.7,0.7,0.7s0.7-0.3,0.7-0.7c0-6-3.4-11.1-8.5-13.6l-0.3-0.2l-0.3,0.2
		c-1.8,1-3.8,1.5-6,1.5c-2.2,0-4.2-0.6-6-1.5l-0.3-0.2l-0.3,0.2c-5,2.5-8.4,7.6-8.4,13.6c0,0.4,0.3,0.7,0.7,0.7
		S37.7,106.9,37.7,106.5z"/>
	<path class="st0" d="M81.1,69H66.6c-0.4,0-0.7,0.3-0.7,0.7c0,0.4,0.3,0.7,0.7,0.7h14.6c0.4,0,0.7-0.3,0.7-0.7
		C81.8,69.4,81.5,69,81.1,69"/>
	<path class="st0" d="M64.7,63.3l-6.1,6.4l6.1,6.7c0.3,0.3,0.7,0.3,1,0c0.3-0.3,0.3-0.7,0-1l-5.2-5.7l5.2-5.5c0.3-0.3,0.3-0.7,0-1
		C65.4,63,65,63.1,64.7,63.3z"/>
	<path class="st1" d="M59.5,54.2h14.6c0.4,0,0.7-0.3,0.7-0.7c0-0.4-0.3-0.7-0.7-0.7H59.5c-0.4,0-0.7,0.3-0.7,0.7
		C58.8,53.9,59.1,54.2,59.5,54.2"/>
	<path class="st1" d="M74.9,48.1l5.2,5.5l-5.2,5.7c-0.3,0.3-0.2,0.7,0,1c0.3,0.3,0.7,0.2,1,0l6.1-6.7l-6.1-6.4c-0.3-0.3-0.7-0.3-1,0
		C74.7,47.3,74.6,47.8,74.9,48.1z"/>
	<path class="st0" d="M103,49.8h14.9c0.4,0,0.7-0.3,0.7-0.7c0-0.4-0.3-0.7-0.7-0.7H103c-0.4,0-0.7,0.3-0.7,0.7
		C102.3,49.5,102.6,49.8,103,49.8"/>
	<path class="st0" d="M103,54.8h14.9c0.4,0,0.7-0.3,0.7-0.7s-0.3-0.7-0.7-0.7H103c-0.4,0-0.7,0.3-0.7,0.7S102.6,54.8,103,54.8"/>
	<path class="st0" d="M103,59.9h8.6c0.4,0,0.7-0.3,0.7-0.7c0-0.4-0.3-0.7-0.7-0.7H103c-0.4,0-0.7,0.3-0.7,0.7
		C102.3,59.6,102.6,59.9,103,59.9"/>
	<path class="st1" d="M23.9,49.1h14.9c0.4,0,0.7-0.3,0.7-0.7c0-0.4-0.3-0.7-0.7-0.7H23.9c-0.4,0-0.7,0.3-0.7,0.7
		C23.2,48.8,23.5,49.1,23.9,49.1"/>
	<path class="st1" d="M23.9,54.2h14.9c0.4,0,0.7-0.3,0.7-0.7s-0.3-0.7-0.7-0.7H23.9c-0.4,0-0.7,0.3-0.7,0.7S23.5,54.2,23.9,54.2"/>
	<path class="st1" d="M23.9,59.2h9.8c0.4,0,0.7-0.3,0.7-0.7s-0.3-0.7-0.7-0.7h-9.8c-0.4,0-0.7,0.3-0.7,0.7S23.5,59.2,23.9,59.2"/>
	<path class="st1" d="M131.9,141.4V141H9.9c-2.5,0-4.8-1-6.4-2.7c-1.6-1.6-2.7-3.9-2.7-6.4V9.9c0-2.5,1-4.8,2.7-6.4
		c1.6-1.6,3.9-2.7,6.4-2.7h122c2.5,0,4.8,1,6.4,2.7c1.6,1.6,2.7,3.9,2.7,6.4v122c0,2.5-1,4.8-2.7,6.4c-1.6,1.6-3.9,2.7-6.4,2.7
		V141.4v0.4c5.4,0,9.8-4.4,9.9-9.9V9.9c0-5.4-4.4-9.8-9.9-9.9H9.9C4.4,0.1,0,4.5,0,9.9v122c0,5.4,4.4,9.8,9.9,9.9h122V141.4z"/>
</g>
</svg>
