<?xml version="1.0" encoding="UTF-8"?>
<svg id="Layer_1" data-name="Layer 1" xmlns="http://www.w3.org/2000/svg" viewBox="0 0 948.5 606.68">
  <defs>
    <style>
      .cls-1, .cls-2 {
        opacity: .1;
      }

      .cls-2, .cls-3, .cls-4, .cls-5, .cls-6, .cls-7, .cls-8, .cls-9, .cls-10, .cls-11, .cls-12, .cls-13, .cls-14, .cls-15, .cls-16, .cls-17, .cls-18, .cls-19, .cls-20 {
        stroke-width: 0px;
      }

      .cls-21 {
        fill: none;
        stroke: #fff;
        stroke-miterlimit: 10;
      }

      .cls-22 {
        isolation: isolate;
      }

      .cls-4 {
        fill: #4d26bb;
      }

      .cls-5 {
        fill: #460a62;
      }

      .cls-6 {
        fill: #4b4bf1;
      }

      .cls-7 {
        fill: #2a18d7;
      }

      .cls-8 {
        fill: #29056a;
      }

      .cls-9 {
        fill: #1a2e35;
      }

      .cls-10 {
        fill: #140149;
      }

      .cls-11 {
        fill: #ddcde1;
      }

      .cls-12 {
        fill: #8d3ba3;
      }

      .cls-13 {
        fill: #ececec;
      }

      .cls-14 {
        fill: #fff;
      }

      .cls-15 {
        fill: #ff9cbf;
      }

      .cls-16 {
        fill: #e6c3a5;
      }

      .cls-17 {
        fill: #ffd5f8;
      }

      .cls-18 {
        fill: #ffc800;
      }

      .cls-19 {
        fill: #ed90fd;
      }

      .cls-20 {
        fill: #6a2081;
      }
    </style>
  </defs>
  <g>
    <path class="cls-13" d="M236.14,269.51l-9.47,20.87,6.39,2.89c1.88.85,3.08,2.7,3.17,4.76.05,1.14.16,2.28.33,3.41.31,2.03-.51,4.07-2.18,5.27l-5.7,4.09,13.35,18.64,5.7-4.09c1.67-1.2,3.87-1.32,5.69-.37,1.02.53,2.06,1,3.12,1.41,1.92.75,3.28,2.48,3.49,4.53l.68,6.98,22.81-2.25-.7-7.01c-.2-2.05.82-4,2.56-5.11.47-.3.94-.62,1.4-.95.46-.33.91-.67,1.35-1.02,1.61-1.28,3.77-1.62,5.64-.78l6.44,2.92,9.47-20.87-6.4-2.91c-1.88-.85-3.08-2.7-3.17-4.76-.05-1.14-.16-2.27-.33-3.4-.31-2.03.51-4.07,2.18-5.27l5.71-4.09-13.35-18.64-5.71,4.09c-1.67,1.2-3.86,1.32-5.69.37-1.01-.52-2.05-.99-3.11-1.4-1.92-.75-3.29-2.48-3.49-4.53l-.69-7-22.81,2.25.69,7c.2,2.05-.82,3.99-2.55,5.1-.47.3-.94.62-1.41.96-.46.33-.91.67-1.35,1.02-1.62,1.29-3.79,1.63-5.67.78l-6.4-2.9ZM257.24,281.35c8.43-6.04,20.15-4.1,26.18,4.33,6.04,8.43,4.11,20.16-4.31,26.2-8.43,6.04-20.17,4.1-26.21-4.33-6.04-8.43-4.09-20.16,4.34-26.2Z"/>
    <path class="cls-13" d="M872.88,93.31l-9.6,5.54,1.7,2.94c.5.86.45,1.93-.09,2.76-.3.46-.58.94-.83,1.44-.45.89-1.35,1.46-2.34,1.46h-3.39v11.09h3.39c.99,0,1.89.57,2.34,1.46.25.49.53.97.83,1.44.54.84.59,1.9.09,2.76l-1.7,2.94,9.6,5.54,1.7-2.95c.5-.87,1.45-1.34,2.45-1.29.27.01.54.02.82.02s.55,0,.82-.02c.99-.05,1.94.42,2.43,1.28l1.71,2.96,9.6-5.54-1.7-2.95c-.5-.86-.45-1.93.1-2.76.3-.46.58-.94.83-1.43.45-.89,1.35-1.46,2.34-1.46h3.39v-11.09h-3.39c-.99,0-1.89-.57-2.34-1.46-.25-.49-.53-.97-.83-1.43-.55-.84-.6-1.9-.1-2.76l1.7-2.95-9.6-5.54-1.7,2.95c-.5.86-1.44,1.34-2.44,1.29-.27-.01-.55-.02-.82-.02s-.55,0-.82.02c-1,.05-1.95-.42-2.45-1.29l-1.7-2.94ZM877.84,103.91c5.01,0,9.07,4.06,9.07,9.07s-4.06,9.08-9.07,9.08-9.08-4.07-9.08-9.08,4.07-9.07,9.08-9.07Z"/>
    <path class="cls-13" d="M52.42,141.62l6.73,8.8,2.69-2.06c.79-.61,1.85-.7,2.75-.26.5.24,1.01.45,1.53.64.94.33,1.62,1.15,1.75,2.13l.44,3.36,10.99-1.43-.44-3.36c-.13-.99.32-1.95,1.14-2.51.46-.31.9-.65,1.32-1.01.76-.65,1.81-.83,2.73-.45l3.13,1.3,4.25-10.23-3.15-1.3c-.92-.38-1.52-1.26-1.59-2.26-.02-.27-.05-.54-.08-.81-.04-.27-.08-.54-.13-.81-.18-.98.17-1.98.96-2.58l2.71-2.08-6.73-8.8-2.7,2.06c-.79.61-1.85.69-2.75.26-.49-.24-1-.45-1.52-.64-.94-.33-1.62-1.15-1.74-2.13l-.44-3.36-10.99,1.43.44,3.36c.13.99-.32,1.95-1.14,2.51-.46.31-.89.65-1.31,1-.76.65-1.81.84-2.73.45l-3.14-1.3-4.25,10.23,3.14,1.31c.92.38,1.51,1.26,1.59,2.25.02.27.05.54.09.82.04.27.08.54.13.81.18.98-.17,1.99-.96,2.59l-2.7,2.06ZM62.28,135.33c-.65-4.97,2.86-9.52,7.83-10.17,4.97-.65,9.53,2.85,10.18,7.83.65,4.97-2.86,9.53-7.83,10.18-4.97.65-9.52-2.86-10.17-7.84Z"/>
  </g>
  <ellipse class="cls-8" cx="474.25" cy="570.34" rx="461.71" ry="36.33"/>
  <g>
    <g>
      <rect class="cls-19" x="203.5" y="377.69" width="46.59" height="100.64"/>
      <g class="cls-1">
        <rect class="cls-3" x="239.42" y="377.69" width="10.67" height="100.64"/>
      </g>
    </g>
    <g>
      <rect class="cls-19" x="264.88" y="339.66" width="46.59" height="138.68"/>
      <g class="cls-1">
        <rect class="cls-3" x="300.8" y="339.66" width="10.67" height="138.68"/>
      </g>
    </g>
    <g>
      <rect class="cls-19" x="142.25" y="400.36" width="46.59" height="77.98"/>
      <g class="cls-1">
        <rect class="cls-3" x="178.17" y="400.36" width="10.67" height="77.98"/>
      </g>
    </g>
    <g>
      <rect class="cls-19" x="326.25" y="289.01" width="46.59" height="189.33"/>
      <g class="cls-1">
        <rect class="cls-3" x="362.17" y="289.01" width="10.67" height="189.33"/>
      </g>
    </g>
    <g>
      <path class="cls-11" d="M125.75,448.11v-19.41s169.68-11.12,238.25-155.88l6.82,1.35s-45.53,148.37-245.06,173.93Z"/>
      <polygon class="cls-11" points="377.17 279.05 355.74 273.58 373.5 259.94 377.17 279.05"/>
    </g>
  </g>
  <path class="cls-9" d="M0,478.04c303.84-.61,644.66-.62,948.5,0-303.84.62-644.66.61-948.5,0h0Z"/>
  <g>
    <g>
      <g>
        <path class="cls-17" d="M888.3,389.75s13.75-49.36,24.73-66.12c10.98-16.76,31.45-35.18,31.45-35.18,0,0-.48,76.1-56.19,101.3Z"/>
        <path class="cls-9" d="M889.28,388.9c4.71-7.66,8.71-15.74,12.54-23.92,1.69-8.76,3.75-17.58,6.83-25.96.06-.16.28-.07.24.09-1.83,7.8-3.95,15.53-5.88,23.3,5.55-12.01,10.83-24.18,17.44-35.53,1.34-5.5,3.87-10.8,6.37-15.79.07-.14.31-.07.24.09-1.76,3.87-3.03,7.85-4.29,11.85,3.13-5.03,6.55-9.87,10.45-14.43.24-.28.72.03.48.33-8.84,11.28-14.94,24.12-20.75,37.11,6.28-6.72,11.99-14.06,17.26-21.57.05-.08.17,0,.12.08-5.43,8.64-11.69,16.38-18.48,23.96-4.23,9.52-8.39,19.08-13.44,28.14,10.08-8.52,17.84-19.55,25.52-30.19.17-.24.54.01.38.26-7.68,11.68-15.63,22.67-26.68,31.32-2.26,3.96-4.68,7.83-7.38,11.53-.45.61-1.37-.02-.97-.67Z"/>
      </g>
      <g>
        <path class="cls-17" d="M880.91,389.82s24.72-45.51,17.54-89.64c-7.18-44.13-14.87-59.84-14.87-59.84,0,0-38.86,68.63-2.67,149.48Z"/>
        <g>
          <path class="cls-9" d="M870.76,318.27c1.97,12.74,5.43,24.67,9.54,36.75.07-16.19.38-32.39.81-48.58-2.85-9.84-4.28-19.92-4.67-30.16-.01-.3.44-.28.46,0,.73,8.81,2.28,17.4,4.33,25.95.38-13.36.82-26.72,1.3-40.07,0-.22.35-.22.35,0-.02,20.87,0,41.74-.14,62.61,3.19-8.04,5.19-16.31,7.13-24.79.02-.08.15-.06.14.02-.74,9.75-3.71,19.17-7.3,28.21-.1,13.34-.24,26.68-.54,40.02,4.18-14.18,8.65-27.92,9.86-42.9.02-.2.32-.2.31,0-.33,16.53-4.59,33.3-10.04,48.84-.06.17-.16.29-.28.39-.12,4.87-.26,9.75-.43,14.62-.02.7-1.07.68-1.08-.02-.19-9.97-.26-19.95-.24-29.92-5.55-12.82-8.51-27.11-9.75-40.97-.01-.12.2-.15.22-.03Z"/>
          <path class="cls-9" d="M872.45,311.23c.78,3.91,1.52,8.04,1.73,12.02,0,.14-.2.16-.24.03-1.02-3.86-1.58-8.02-2.03-11.99-.04-.31.48-.37.54-.06Z"/>
          <path class="cls-9" d="M886.91,277.96c.02-.14.23-.09.23.04.03,2.74-.52,5.67-1.24,8.29-.06.22-.38.12-.34-.1.54-2.74.87-5.49,1.34-8.23Z"/>
        </g>
      </g>
      <g>
        <path class="cls-17" d="M874.56,392.38s-5.21-47.23-21.8-68.87c-16.6-21.63-40.58-30.61-40.58-30.61,0,0,19.98,81.84,62.38,99.48Z"/>
        <g>
          <path class="cls-9" d="M844.62,355.34c6.76,7.43,13.44,14.57,21.34,20.77-3.97-9.28-8.35-18.33-13.1-27.18-8.45-5.64-16.87-11.54-22.71-20.01-.09-.14.1-.29.2-.16,6.06,7.39,13.59,12.95,21.44,18.22-7.24-13.28-15.32-26.1-24.21-38.48-.23-.32.23-.67.48-.37,5.24,6.37,10.11,13.04,14.63,19.94-1.93-4.87-3.62-9.88-5.58-14.71-.05-.14.14-.21.21-.09,3.23,5.98,6.53,12.62,8.18,19.25,6.1,9.82,11.5,20.07,16.14,30.67-1.28-7.02-2.65-13.99-4.3-20.93-.03-.13.19-.19.23-.06,2.5,7.63,4.31,15.48,5.17,23.46,2.87,6.76,5.45,13.65,7.71,20.63.06.19-.21.31-.29.12-1.13-2.9-2.32-5.77-3.52-8.63-.05-.02-.11,0-.16-.04-8.2-6.3-16.18-13.68-21.92-22.34-.03-.05.03-.09.07-.05Z"/>
          <path class="cls-9" d="M823.92,319.08c1.72,1.43,3.33,2.96,5,4.44,1.48,1.31,3.23,2.5,4.49,4.03.05.06-.02.15-.09.12-1.89-.88-3.52-2.48-5.08-3.84-1.64-1.44-3.13-2.87-4.51-4.55-.1-.12.07-.29.19-.19Z"/>
        </g>
      </g>
    </g>
    <g>
      <g>
        <path class="cls-12" d="M912.38,387.5l-1.72,22.51-5.18,68.03h-45.15l-5.18-68.03-1.72-22.51h58.94Z"/>
        <path class="cls-20" d="M912.38,387.5l-1.72,22.51h-55.5l-1.72-22.51h58.94Z"/>
      </g>
      <rect class="cls-5" x="849.43" y="376.46" width="66.96" height="17.25" transform="translate(1765.82 770.18) rotate(180)"/>
    </g>
  </g>
  <g>
    <g>
      <g>
        <g>
          <path class="cls-16" d="M273.69,545.11c-3.02.98-89.36.22-92.64-1.89-1.25-.79-1.87-13.37-2.19-28.6-.07-3.29-6.59-56.26-6.59-56.26l57.72.34,4.54,56.25s32.93,15.08,36.27,17.77c3.32,2.7,5.92,11.4,2.89,12.38Z"/>
          <path class="cls-9" d="M273.69,545.12c-3.02.97-89.35.22-92.63-1.9-.97-.63-1.57-8.58-1.94-19.4,14.66,2.22,64.8,9.64,75.86,8.55,7.52-.74,2.68-5.37-2.72-9.15,8.4,4,16.96,8.21,18.56,9.51,3.33,2.71,5.92,11.41,2.88,12.39Z"/>
        </g>
        <g>
          <path class="cls-17" d="M90.09,244.47s65.62,114.84,67.32,122.87c2.61,12.33,17.81,146.77,17.81,146.77l64.58-.4s-12.78-120.03-23.73-155.45c-5.98-19.34-37.41-71.77-52.15-97.65-1.32-2.31-.93-12.9-.93-12.9l-72.9-3.24Z"/>
          <g>
            <path class="cls-8" d="M233.59,502.94c-10.01-.2-40.33-1.03-53.68.05-.1,0-.1.18,0,.19,4.58.72,43.66.23,53.68.04.19,0,.19-.27,0-.28Z"/>
            <path class="cls-8" d="M101.4,255.07c4.31,6.94,8.86,13.74,13.26,20.63,4.41,6.89,8.8,13.78,13.13,20.72,8.66,13.86,17.09,27.86,25.36,41.94,3.88,6.61,7.57,13.27,10.2,20.45,2.61,7.12,4.35,14.51,5.61,21.96,1.27,7.5,2.08,15.07,2.84,22.63.81,8.05,1.6,16.11,2.4,24.17,1.63,16.48,5.35,45.74,6.99,62.22.2,2.02.4,4.04.57,6.07.03.3-.5.35-.54.05-1.85-16.38-5.43-45.58-7.1-61.98-.83-8.16-1.65-16.33-2.48-24.49-.77-7.59-1.5-15.19-2.58-22.75-1.06-7.42-2.47-14.82-4.64-22.02-2.26-7.52-5.51-14.6-9.38-21.46-7.91-14.04-16.29-27.84-24.68-41.61-8.46-13.89-16.99-27.74-25.85-41.39-1.09-1.69-2.2-3.36-3.33-5.02-.09-.13.14-.25.22-.11Z"/>
          </g>
        </g>
      </g>
      <g>
        <g>
          <path class="cls-16" d="M116.06,549.8c-3.18-.23-84.86-34.51-87.11-37.69-.07-.11-.12-.31-.12-.61.05-2.82,5.86-12.63,10.77-25.54.31-.83,28.34-48.19,28.34-48.19l53.4,21.98-30.27,47.39s24.86,26.34,26.95,30.09c2.07,3.75,1.21,12.79-1.95,12.57Z"/>
          <path class="cls-10" d="M116.06,549.8c-3.18-.24-84.86-34.5-87.12-37.69-.07-.1-.12-.31-.12-.6.04-2.27,3.81-9.07,7.84-18.35,14.73,10.85,60.84,39.52,69.53,40.14,4.58.32.78-7.24-2.24-12.29,6.42,6.99,13.04,14.38,14.06,16.23,2.06,3.75,1.21,12.79-1.96,12.57Z"/>
        </g>
        <g>
          <path class="cls-17" d="M95.89,508.34l-59.77-24.99s79.29-121.14,79.94-129.28c.58-7.21-31.36-70.44-32.42-88.77-1.15-19.78,8.56-34.95,19.13-44.32l60.24,26.73s-5.27,10.75-15.64,16.45c0,0,30.88,73.01,28.8,95.32-2.09,22.43-80.28,148.86-80.28,148.86Z"/>
          <g>
            <path class="cls-8" d="M98.69,496.95c-8.64-3.84-6.11-2.86-14.79-6.61-4.25-1.83-32.18-13.85-36.44-14.86-.09-.02-.16.13-.07.18,3.71,2.33,31.85,13.86,36.13,15.61,8.75,3.58,6.28,2.45,15.07,5.93.16.07.27-.18.11-.25Z"/>
            <g>
              <path class="cls-8" d="M157.57,262.96c-6.47,1.31-12.83,3.51-18.95,5.89-.24.09-.13.45.12.38,6.36-1.77,12.82-3.42,19.07-5.53.49-.17.25-.84-.24-.74Z"/>
              <path class="cls-8" d="M150.25,260.32c-.62,1.06-1.16,2.17-1.63,3.3-.37.88-.84,1.81-.85,2.77,0,.19.25.23.37.12.73-.7,1.12-1.73,1.59-2.61.54-1.02,1.1-2.02,1.61-3.05.34-.68-.7-1.19-1.09-.54Z"/>
              <path class="cls-9" d="M151.08,254.5c.39-.95.79-1.9,1.2-2.84.43-.97.92-1.93,1.27-2.93.06-.16.31-.05.24.11-.39.95-.65,1.97-.97,2.94-.32.98-.65,1.96-.99,2.93-.63,1.82-1.39,3.62-2.2,5.37,1.01,0,2.06-.03,2.98-.48,1.01-.49,1.63-1.54,2.13-2.5.56-1.06,1.08-2.14,1.65-3.2.64-1.16,1.34-2.31,1.76-3.57.05-.16.3-.05.24.11-.96,2.6-1.91,5.21-3.4,7.6-.58.94-1.06,1.92-2.11,2.28-1.13.38-2.37.29-3.54.19-.15.04-.33-.06-.28-.23.58-1.94,1.23-3.91,2-5.79Z"/>
            </g>
            <path class="cls-8" d="M148.29,266.54c2.14,4.7,4.02,9.37,6.03,14.05,1.96,4.57,3.78,9.19,5.55,13.84,3.58,9.38,6.77,18.93,9.56,28.58,1.38,4.78,2.64,9.58,3.78,14.42,1.14,4.85,2.25,9.75,2.69,14.72.44,4.99.02,9.91-1.43,14.71-1.47,4.87-9.42,21.39-11.68,25.94-1.38,2.78-1.84,2.4-1.17.99,1.9-3.98,12.85-26.93,13.42-36.43.29-4.92-1.77-11.88-2.82-16.67-1.07-4.89-2.3-9.76-3.63-14.59-2.64-9.52-5.79-18.85-9.04-28.17-1.82-5.22-3.78-10.39-5.63-15.6-1.86-5.25-3.79-9.98-5.86-15.71-.05-.15.17-.23.23-.09Z"/>
            <path class="cls-9" d="M102.88,250.56c1.08-.39,2.57.29,3.66.49,1.4.25,2.83.41,4.25.48,1.41.07,2.82.03,4.22-.09,1.4-.12,2.83-.27,4.06-1.02,2.07-1.25,3.81-3.49,5.22-5.41,1.55-2.11,3.17-4.55,4.11-7.01.06-.15.27-.04.23.1-.47,1.43-.82,2.88-1.42,4.28-.56,1.32-1.27,2.58-2.03,3.79-1.41,2.26-3.03,4.68-5.42,6-2.51,1.39-5.72,1.27-8.5,1.07-1.61-.11-3.2-.34-4.78-.7-1.13-.25-3.05-.46-3.76-1.47-.13-.18-.05-.45.16-.53Z"/>
            <path class="cls-8" d="M53.41,472.11c10.06-14.82,52.38-87.67,61.8-102.96,2.25-3.66,4.85-7.3,6.32-11.37,1.6-4.42.78-8.72-.57-13.08-2.47-7.99-5.57-15.77-8.93-23.43-3.37-7.68-7.01-15.23-10.58-22.81-3.55-7.52-7.33-15.07-9.99-22.96-2.54-7.54-3.45-15.33-1.33-23.09,2.1-7.7,6.53-14.58,11.15-20.99,1.22-1.69,2.46-3.37,3.68-5.06.09-.13.29.03.19.16-5.08,6.68-10.04,13.76-13.07,21.65-1.5,3.9-2.49,8-2.63,12.19-.15,4.24.6,8.46,1.8,12.51,2.33,7.89,6.08,15.37,9.56,22.8,3.56,7.59,7.22,15.14,10.65,22.79,3.45,7.7,6.67,15.51,9.3,23.53,1.17,3.57,2.48,7.31,2.35,11.12-.14,4.17-2.18,7.91-4.28,11.4-9.17,15.21-51.28,87.54-61.28,102.3-1.26,1.86-2.52,3.72-3.79,5.58-.16.23-.49-.05-.33-.28Z"/>
          </g>
        </g>
      </g>
    </g>
    <g>
      <g>
        <path class="cls-9" d="M108.6,105.64c-12.69,10.88-9.15,26.74-14.45,35.34-3.24,5.26-13.79,10.82-15.89,16.88-3.45,9.96,5,13.54,3.11,18.95-2.68,7.67-12.95,7.07-14.8,19.62-1.85,12.55,11.96,25.9,44.72,29.51,32.77,3.62,50.77-8.38,51.94-19.03,1.17-10.65-9.73-14.19-10.47-22.14-.47-5.08,6.26-8.62,6.6-17.97.34-9.35-8.77-12.39-10.08-20.33-1.31-7.98,2.9-27.24-8.77-37.09-11.67-9.85-25.66-9.12-31.92-3.75Z"/>
        <path class="cls-9" d="M110.07,105.92c-3.61,2.54-6.37,5.81-8.42,9.72-2.13,4.06-3.55,8.45-4.68,12.88-.67,2.62-1.29,5.3-2.54,7.71-1.09,2.09-2.66,3.86-4.4,5.43-3.54,3.21-7.78,5.64-10.96,9.24-3.02,3.41-5.36,7.98-4.16,12.63.65,2.53,2.32,4.59,3.36,6.95.98,2.24,1.38,5.01-.54,6.87-1.64,1.59-4.01,2.31-5.87,3.62-1.83,1.28-3.46,2.84-4.78,4.64-2.7,3.66-3.87,8.11-3.02,12.6,1.93,10.19,11.49,15.99,20.32,19.64,1.23.51,2.47,1,3.71,1.5.19.08.35-.2.16-.29-8.86-3.97-19.14-8.62-22.55-18.53-1.53-4.46-1.03-9.18,1.53-13.15,1.23-1.91,2.86-3.58,4.68-4.93,1.78-1.32,3.84-2.12,5.65-3.37,1.84-1.27,2.89-3.12,2.79-5.38-.11-2.39-1.28-4.48-2.44-6.51-1.22-2.15-2.26-4.32-2.09-6.86.16-2.38,1.27-4.63,2.62-6.55,2.76-3.91,6.84-6.47,10.5-9.43,3.68-2.98,6.63-6.41,7.97-11.03.68-2.34,1.1-4.74,1.69-7.1.54-2.19,1.18-4.36,1.95-6.48,1.54-4.19,3.73-8.25,6.93-11.42.84-.83,1.72-1.57,2.71-2.22.11-.07,0-.25-.11-.17Z"/>
        <path class="cls-9" d="M164.69,199.11c-.41-1.72-1.17-3.38-2.27-4.77-1.14-1.44-2.52-2.66-3.78-4-1.2-1.26-2.33-2.68-2.68-4.42-.42-2.09.46-4.1,1.44-5.9,1.03-1.89,2.18-3.68,2.93-5.71.73-1.96,1.13-4.02,1.25-6.11.24-4.36-1.04-8.49-3.3-12.19-1.12-1.83-2.38-3.57-3.51-5.39-1.25-2.01-2.23-4.1-2.91-6.36-1.48-4.93-1.79-10.14-3-15.14-1.24-5.13-3.08-10.09-5.32-14.86-.06-.12-.23-.01-.17.11,2.03,4.3,3.56,8.8,4.65,13.43,1.04,4.38,1.44,8.85,2.22,13.28.38,2.17.86,4.33,1.66,6.39.75,1.92,1.77,3.72,2.84,5.48,2.21,3.61,4.5,7.17,5.11,11.45.6,4.24-.11,8.49-2.11,12.27-1.72,3.26-4.14,6.85-2.63,10.66,1.27,3.23,4.35,5.16,6.4,7.84,2.25,2.95,2.91,6.75,2.22,10.36-1.76,9.17-10.96,13.73-19.57,14.18-.27.01-.26.42.01.42,7.48-.09,15.63-3.38,19.14-10.38,1.63-3.25,2.2-7.07,1.37-10.62Z"/>
      </g>
      <g>
        <g>
          <path class="cls-16" d="M145.07,174.54c20.56,18.67,47.49,38.34,61.58,34.45,12.74-3.52,30.37-19.76,49.63-37.28,3.83-3.48-24.8-31.81-28.5-27.7-7.3,8.1-22.04,28.56-27.84,31.07-2.49,1.08-31.81-11.44-50.9-17.43-23.17-7.28-12.17,9.45-3.97,16.89Z"/>
          <g>
            <path class="cls-16" d="M271.77,165.05c-6.71,4.93-17.64,11.56-22.62,12.34-4.67.74-24.52-29.33-21.55-33.16,9.24-11.93,27.72-20.6,36.21-20.24,8.49.35,14.91,35.95,7.96,41.06Z"/>
            <path class="cls-21" d="M28.76,423.36c15.67,8.48,44.35,11.91,57.52-13.7,13.17-25.61,49.36-165.79,51.57-168.95,2.21-3.16,135.79-121.03,138.65-122.1,2.86-1.07,412.74-109.63,412.74-109.63"/>
            <g>
              <path class="cls-16" d="M250.65,126.06c-1.69,4.07,4.08,3.73,4.08,3.73,0,0-8.19,2.49-8.31,7.37-.1,4.7,6.85,4.04,7.35,4-.43.14-7.9,2.62-7.51,7.53.41,5.1,7.27,3.25,7.72,3.12-.37.26-5.17,3.72-4.03,7.39,1.96,6.3,14.49-2.23,19.69-1.02,0,0,1.61,6.97,1.63,7.24,0,0,9.42-5.79,10.67-12.9.66-3.75-2.7-5.1-2.7-5.1,0,0,4.18-2.11,4-5.98-.1-1.99-3.37-3.6-3.37-3.6,0,0,3.27-1.83,2.9-5.26-.29-2.74-3.53-3.93-3.53-3.93,0,0,2.33-3.21,1.12-5.92-2.43-5.46-26.09-5.39-29.72,3.33Z"/>
              <g>
                <path class="cls-9" d="M278.76,128.39c.08,0,.1-.1.02-.12-7.79-1.88-16.92-1.55-24.37,1.52-.24.1-.19.54.1.48,8.29-1.69,15.77-2.54,24.25-1.88Z"/>
                <path class="cls-9" d="M279.99,137.8c.09,0,.11-.14,0-.17-8.04-1.89-18.31-1.24-26.48,3.31-.28.16-.38.58-.04.42,5.66-2.61,18.89-4.19,26.51-3.56Z"/>
                <path class="cls-9" d="M253.52,152.34c8.01-4.06,16.51-5.14,25.4-5,.12,0,.11-.16.01-.19-4.33-1.25-10.01-.75-14.39,0-4.2.73-7.84,2.23-11.16,4.9-.13.1-.03.37.14.28Z"/>
              </g>
              <path class="cls-9" d="M254.72,129.8c-1.53.63-3.01,1.38-4.38,2.27-1.35.89-2.65,1.99-3.3,3.36-.32.68-.41,1.43-.2,2.12.22.7.6,1.38,1.13,1.87,1.05,1.01,2.71,1.3,4.14,1.15l3.6-.39-3.24,1.61c-1.42.7-2.81,1.65-3.91,2.77-1.1,1.12-1.91,2.52-1.79,3.94.09,1.48.97,2.65,2.41,2.95,1.41.35,3.1.12,4.57-.31l4.11-1.22-3.47,2.48c-.94.67-1.86,1.51-2.6,2.41-.74.91-1.33,1.94-1.41,2.99-.09,1.02.39,2.11,1.25,2.59.9.52,2.15.54,3.34.45,2.43-.21,4.84-.95,7.26-1.56,1.21-.32,2.43-.64,3.67-.9,1.23-.24,2.52-.5,3.76-.2-1.25-.17-2.48.23-3.67.54-1.2.35-2.38.76-3.57,1.17-2.37.82-4.77,1.61-7.34,1.98-1.28.14-2.66.25-4.02-.42-1.4-.7-2.1-2.29-1.99-3.74.11-1.48.85-2.72,1.66-3.76.84-1.04,1.77-1.93,2.86-2.73l.64,1.27c-1.73.53-3.5.83-5.4.42-.93-.21-1.89-.74-2.52-1.57-.63-.83-.92-1.79-.97-2.76-.11-2.02,1.02-3.76,2.27-4.99,1.29-1.26,2.74-2.21,4.35-2.98l.35,1.23c-1.82.13-3.71-.33-5.04-1.69-.65-.67-1.05-1.51-1.28-2.39-.23-.91-.06-1.9.36-2.69.87-1.6,2.36-2.56,3.79-3.39,1.46-.81,3.01-1.44,4.6-1.9Z"/>
            </g>
            <g>
              <path class="cls-16" d="M230.05,141.36s20.14-32.6,28.6-19.76c2.51,3.82,8.28,22.48,4.56,23.71-4.81,1.59-8.68-5.75-10.37-10.75,0,0-4.64,11.21-13.41,10.3-5.5-.57-9.37-3.51-9.37-3.51Z"/>
              <path class="cls-9" d="M257.88,120.57c1.22,1.33,2.05,2.96,2.83,4.58.78,1.63,1.39,3.33,1.94,5.05,1.06,3.45,2,6.9,2.45,10.55.1.92.16,1.86,0,2.87-.09.5-.26,1.05-.59,1.53-.16.24-.33.43-.62.66-.26.18-.53.33-.8.41-1.09.38-2.2.2-3.15-.17-.94-.4-1.74-1-2.44-1.66-1.39-1.34-2.38-2.93-3.2-4.57-.84-1.64-1.47-3.34-2.05-5.06l1.17.02c-.58,1.3-1.28,2.46-2.07,3.59-.79,1.12-1.69,2.17-2.69,3.11-1.01.93-2.15,1.72-3.38,2.32-1.23.6-2.57.96-3.91,1.06,1.32-.28,2.57-.76,3.7-1.44,1.14-.67,2.13-1.55,3.04-2.5.9-.95,1.7-2,2.39-3.11.69-1.11,1.31-2.3,1.76-3.48l.57-1.5.6,1.52c.64,1.64,1.28,3.29,2.13,4.81.83,1.52,1.75,3.01,2.97,4.14,1.17,1.11,2.77,1.94,4.07,1.49,1.18-.29,1.24-2.26,1.09-3.92-.14-1.73-.47-3.48-.8-5.22-.33-1.75-.69-3.49-1.14-5.21-.95-3.4-1.9-6.89-3.87-9.88Z"/>
            </g>
          </g>
        </g>
        <g>
          <path class="cls-19" d="M179.14,203.4l11.11-31.99s-27.06-12.37-42.55-15.71c-15.49-3.34-19.37,3.21-5.5,17.44,13.87,14.24,36.95,30.25,36.95,30.25Z"/>
          <path class="cls-8" d="M184.57,170.65c-1.97,4.14-3.59,8.47-5.19,12.77-1.59,4.26-3.06,8.57-4.31,12.94-.02.08.11.13.14.05,1.77-4.24,3.4-8.53,4.98-12.84,1.56-4.26,3.2-8.52,4.53-12.86.03-.09-.12-.14-.16-.06Z"/>
          <path class="cls-2" d="M184.84,186.99l-5.7,16.41s-23.08-16.01-36.95-30.24c-4.77-4.91-7.44-8.89-8.25-11.87l50.9,25.71Z"/>
        </g>
      </g>
      <g>
        <path class="cls-19" d="M164.1,248.66l-77.82-13.5s18.83-55.15,35.26-74.91c8.07-9.7,19.94-5.76,24.8-1.55,1.55,1.34,16.72,22.29,18.22,31.01,1.29,7.7-3.96,15.93-3.96,15.93l3.5,43.01Z"/>
        <g>
          <path class="cls-8" d="M148.18,202.58c-3.52.37-7.05.86-10.48,1.74-1.71.44-3.38.96-5.05,1.51-.83.28-1.67.52-2.51.77-.87.25-1.79.48-2.7.51-.08,0-.08.12,0,.13.88.02,1.72.04,2.6-.05.83-.09,1.66-.27,2.48-.47,1.73-.43,3.45-.94,5.18-1.39,3.49-.9,6.98-1.81,10.53-2.46.16-.03.12-.31-.04-.29Z"/>
          <path class="cls-8" d="M156.91,205.69c-2.89-.29-5.85-.44-8.76-.4-1.46.02-2.91.13-4.37.27-.7.07-1.39.15-2.08.24-.76.1-1.51.3-2.28.39-.08,0-.08.13,0,.13.72-.06,1.46,0,2.18-.02.73-.02,1.46-.04,2.18-.06,1.46-.04,2.92-.06,4.37-.11,2.92-.1,5.83-.18,8.75-.18.16,0,.15-.23,0-.24Z"/>
        </g>
      </g>
      <g>
        <g>
          <path class="cls-16" d="M112.79,165.18c-29.72,25-58.09,80.75-45.92,87.65,11.12,6.31,48.65,5.86,64.28,3.94,4.59-.56-.52-36.21-5.43-35.61-5.93.72-20.94,1.19-21.53,1.08-1.26-.23,17.53-39.33,23.54-53.71,8.37-20.04-3.77-12.74-14.93-3.35Z"/>
          <g>
            <path class="cls-16" d="M172.67,218.38c1.7,3.43-1.16,6.18-1.16,6.18,0,0,2.65,1.53,3.45,4.36.92,3.24-3.76,6.1-3.76,6.1,0,0,2.36,2.1,2.91,5.18.56,3.19-3.74,6.74-3.74,6.74,0,0,1.12,3.17-.31,6.16-2.45,5.12-11.07,6.08-16.54,6.75-5.47.67-21.61-2.55-24.75-2.86l-4.6-35.07s23.67-9.98,30.22-9.85c5.51.11,16.38,2.45,18.29,6.31Z"/>
            <g>
              <path class="cls-9" d="M171.19,224.03c-5.83-1.52-11.8-1.23-17.77-1.28-.13,0-.13.21,0,.21,5.94-.02,11.8,1.14,17.73,1.36.16,0,.2-.24.04-.28Z"/>
              <path class="cls-9" d="M171.02,234.57c-1.33-.3-2.76-.17-4.11-.11-1.46.06-2.91.15-4.36.25-2.91.22-5.81.5-8.7.87-.13.02-.14.22,0,.21,2.9-.21,5.8-.38,8.7-.47,1.45-.04,2.91-.08,4.36-.1,1.35-.02,2.78.07,4.1-.25.2-.05.2-.35,0-.4Z"/>
              <path class="cls-9" d="M170.23,246.94c-1.15-.31-2.54-.01-3.7.1-1.32.13-2.65.25-3.97.36-2.65.22-5.29.45-7.95.58-.13,0-.13.21,0,.21,2.7-.12,5.39-.2,8.09-.34,1.32-.07,2.65-.15,3.97-.23,1.12-.07,2.54-.03,3.58-.53.06-.03.04-.12-.02-.13Z"/>
            </g>
          </g>
        </g>
        <g>
          <path class="cls-19" d="M80.87,196.83l31.11,13.36s14.27-26.11,18.7-41.32c4.43-15.21-1.82-19.55-17.01-6.73-15.19,12.82-32.81,34.69-32.81,34.69Z"/>
          <path class="cls-8" d="M113.08,203.54c-3.99-2.26-8.2-4.18-12.37-6.09-4.13-1.89-8.33-3.66-12.6-5.22-.08-.03-.14.1-.06.14,4.1,2.07,8.27,4,12.46,5.88,4.14,1.86,8.27,3.8,12.5,5.44.09.04.15-.11.07-.15Z"/>
          <g>
            <path class="cls-8" d="M126.61,180.31c-10.46,22.38-14.63,29.89-14.63,29.89l-2.27-.97"/>
            <line class="cls-8" x1="120.73" y1="192.81" x2="125.72" y2="185.53"/>
          </g>
        </g>
      </g>
      <g>
        <g>
          <g>
            <path class="cls-16" d="M127.36,159.14c.73,1.19,9.7,7.51,15.51,5.26,1.89-.74-1.67-11.24-1.67-11.24l-.09-.84-1.2-11.69-15.52-3.93-2.21-.47s.54,3.18,1.25,7.13c.03.18.06.37.1.56.03.22.06.44.11.64.1.59.2,1.19.32,1.79.09.46.17.9.28,1.38.1.48.2.94.29,1.42,1.05,4.71,2.52,9.46,2.82,9.97Z"/>
            <path class="cls-9" d="M123.44,143.37c6.01,7.62,14.11,8.83,17.68,8.96l-1.2-11.69-15.52-3.93-2.21-.47s.54,3.18,1.25,7.13Z"/>
          </g>
          <g>
            <path class="cls-16" d="M150.61,117.54c8.72,18.69-1.49,26.03-5.52,27.9-3.66,1.7-16.34,7.04-26.95-10.65-10.61-17.69-4.67-27.65,3.49-31.99,8.17-4.34,20.25-3.95,28.98,14.74Z"/>
            <g>
              <path class="cls-9" d="M142.89,113.45c-.46.15-.91.22-1.39.32-.53.12-.95.27-1.48.06-.29-.11-.46-.52-.38-.81.19-.67.81-.98,1.44-1.14.69-.18,1.27-.15,1.92.15.63.29.49,1.22-.12,1.43Z"/>
              <path class="cls-9" d="M132.93,122.89c.47-.14.88-.34,1.33-.52.51-.21.93-.32,1.25-.79.17-.25.08-.69-.15-.88-.54-.44-1.22-.34-1.84-.12-.67.24-1.13.6-1.5,1.21-.36.59.29,1.28.91,1.11Z"/>
              <g>
                <g>
                  <path class="cls-9" d="M136.91,123.95s-.07.11-.04.16c.66,1.24,1.22,2.77.29,3.75-.03.03,0,.09.05.06,1.29-.88.54-2.91-.29-3.97Z"/>
                  <path class="cls-9" d="M135.14,123.2c-2.1.85-.24,4.99,1.7,4.2,1.91-.78.06-4.91-1.7-4.2Z"/>
                </g>
                <path class="cls-9" d="M134.42,123.78c-.26.4-.42.97-.84,1.21-.48.28-1.06.01-1.57-.26-.05-.03-.07.02-.05.08.34.8,1.01,1.47,1.92,1.21.82-.24,1.07-1.19.91-2.08-.03-.16-.26-.32-.36-.16Z"/>
              </g>
              <g>
                <g>
                  <path class="cls-9" d="M143.75,120.21c-.01-.05.13.02.15.07.52,1.3,1.34,2.71,2.69,2.62.04,0,.07.06.02.08-1.51.42-2.58-1.45-2.86-2.77Z"/>
                  <path class="cls-9" d="M144.31,118.36c2-1.07,3.98,3.01,2.13,4-1.82.97-3.81-3.11-2.13-4Z"/>
                </g>
                <path class="cls-9" d="M145.29,118.22c.43.06.94.3,1.33.13.46-.19.58-.79.65-1.35,0-.06.06-.04.08.01.4.77.54,1.71-.14,2.22-.62.47-1.44.04-2.01-.64-.1-.13-.1-.4.07-.38Z"/>
              </g>
              <path class="cls-9" d="M141.33,134.42c.43.18.91.48,1.4.33.47-.14.92-.56,1.27-.88.03-.03.09,0,.08.04-.14.64-.73,1.23-1.38,1.36-.63.13-1.13-.27-1.48-.75-.05-.07.04-.14.1-.11Z"/>
              <path class="cls-9" d="M144.53,127.35s1.14,1.78,1.56,2.68c.04.08-.16.22-.46.38-.01.01-.02.02-.03.02-1.47.98-3.32,1.17-4.88.32-.1-.06-.03-.2.08-.19,1.59.32,3-.06,4.41-.69-.05-.28-2.06-2.99-1.92-3.06.47-.27,1.59-.38,2.25-.48-2.27-3.78-5.14-7.17-7.35-10.97-.08-.14.11-.27.21-.17,3.25,3.34,5.96,7.63,8.41,11.47.31.48-1.85.66-2.28.67Z"/>
              <g>
                <path class="cls-9" d="M144.95,130.46s-.32,1.46-1.26,2.35c-.34.33-.76.58-1.28.67-1.06.17-1.47-.69-1.63-1.51-.13-.68-.08-1.33-.08-1.33,0,0,1.97.68,4.25-.18Z"/>
                <path class="cls-15" d="M143.69,132.81c-.34.33-.76.58-1.28.67-1.06.17-1.47-.69-1.63-1.51,1.06-.35,2.38-.11,2.91.84Z"/>
              </g>
            </g>
            <path class="cls-9" d="M120.18,135.8c4.49-2.55-1.51-17.29-2.27-19.09.54,1.11,3.39,6.98,3.95,6.98.14,0,.6-.38,1.29-1.02h.01c-.34-.66-.66-1.4-.91-2.16-.13-.34.48.63,1.31,1.79.22-.21.46-.44.72-.68-.68-1.23-1.41-2.81-1.86-4.63-.15-.61,1.28,1.77,2.92,3.64,2.71-2.5,6.68-5.99,10.87-8.35,1.12-.64,2.11-1.14,3-1.55-.88-1.71-2.03-3.43-1.7-3.1.96.92,1.76,1.92,2.37,2.8.49-.22.94-.41,1.35-.58-1.14-2.47-4.29-5.72-3.6-5.34,2.67,1.51,4.53,3.58,5.43,4.73,1.81-.54,2.43-.45,2.26-.91-.32-.81-4.23-8.03-12.07-10.24-8.52-2.4-21.18,3.15-23.28,14.79,0,0-5.38,8.17-3.31,14.16,2.06,5.99,10.92,10.21,13.51,8.74Z"/>
            <g>
              <path class="cls-16" d="M121.78,134.84s-6.44-4.5-8.63-1.99c-2.19,2.51,4.19,10.12,7.85,10.14,3.66.02,3.75-3.36,3.75-3.36l-2.96-4.78Z"/>
              <path class="cls-9" d="M115.03,134.98c-.05.01-.04.09.01.09,2.59.09,4.55,1.75,6.17,3.62-.98-.59-2.06-.71-2.89.49-.04.06.05.14.11.1.85-.54,1.58-.62,2.47-.11.63.36,1.18.92,1.72,1.41.18.16.5-.08.34-.28-.01-.01-.03-.03-.04-.05-.99-2.9-4.7-6.11-7.9-5.28Z"/>
            </g>
          </g>
        </g>
        <g>
          <path class="cls-13" d="M141.29,153.16l-1.35,10.08-14.3-8.69-2.28,4.53s15.78,15.56,15.64,14.71l1.77-8.84,6.83,4.1-3.94-13.65-2.38-2.24Z"/>
          <path class="cls-8" d="M146.04,162.2c-.73-2.23-1.39-4.5-2.22-6.7-.03-.08-.16-.08-.16.02.1,2.31,2.92,10.83,3.44,12.91,0,0-.02-.01-.03-.02-.29-.18-6.27-3.55-6.3-3.46-.5,1.46-1.81,7.9-1.86,8.47-2.5-2.47-12.88-12.09-15.66-14.32-.08-.06-.19.03-.12.11,2.33,2.69,15.83,15.43,15.96,15.36.11.05,1.75-7.89,1.83-9.33,1.07.79,7.24,4.74,7.17,4.39-.47-2.31-1.32-5.2-2.04-7.44Z"/>
        </g>
      </g>
    </g>
  </g>
  <g>
    <path class="cls-19" d="M165.2,101.12c-2.15-3.28-3.36-6.96-3.36-10.85,0-13.75,15.1-24.89,33.71-24.89s33.69,11.15,33.69,24.89-15.08,24.89-33.69,24.89c-9.02,0-17.21-2.61-23.25-6.89l-11.61,2.95,4.51-10.11Z"/>
    <g>
      <path class="cls-14" d="M207.67,90.27c0,1.93,1.56,3.49,3.49,3.49s3.49-1.56,3.49-3.49-1.56-3.49-3.49-3.49-3.49,1.56-3.49,3.49Z"/>
      <circle class="cls-14" cx="195.54" cy="90.27" r="3.49"/>
      <circle class="cls-14" cx="179.93" cy="90.27" r="3.49"/>
    </g>
  </g>
  <g>
    <g class="cls-22">
      <path class="cls-19" d="M391.17,503.34l-118.76,21.48c-63.87,10.68-140.11,13.65-250.56,2.34l119.37-19.96c96.57,7.98,186.08,6.82,249.95-3.86Z"/>
      <path class="cls-18" d="M398.57,542.15l-127.47,20.97c43.29-7.24,88.51-19.69,120.51-35.44,177.49-85.82,252.13-383.06,253.19-385.9h142.9c-1.06,2.84-17.9,51.48-89.18,187.28-44.08,80.69-109.23,140.11-187.54,178.66-32,15.75-69.13,27.19-112.42,34.43Z"/>
      <path class="cls-19" d="M398.57,542.15l-127.47,20.97c43.29-7.24,88.51-19.69,120.51-35.44,177.49-85.82,252.13-383.06,253.19-385.9h142.9c-1.06,2.84-17.9,51.48-89.18,187.28-44.08,80.69-109.23,140.11-187.54,178.66-32,15.75-69.13,27.19-112.42,34.43Z"/>
      <path class="cls-12" d="M611.61,126.88l33.2,14.9c-1.06,2.84-71.37,295.01-253.19,385.9-110.81,55.39-205.58,52.07-368.61,38.6l-1.16-39.12c158.38,13.08,279.91,3.5,355.69-36.17,171-89.51,233.82-363.44,234.07-364.11Z"/>
      <polygon class="cls-18" points="611.61 126.88 765.63 126.88 787.71 141.78 644.81 141.78 611.61 126.88"/>
    </g>
    <g class="cls-22">
      <polygon class="cls-18" points="728.92 31.14 829.07 158.2 593.04 157.56 728.92 31.14"/>
      <polygon class="cls-19" points="728.92 31.14 829.07 158.2 593.04 157.56 728.92 31.14"/>
      <polygon class="cls-18" points="593.04 157.56 552.45 126.42 688.33 0 728.92 31.14 593.04 157.56"/>
      <polygon class="cls-12" points="593.04 157.56 552.45 126.42 688.33 0 728.92 31.14 593.04 157.56"/>
    </g>
  </g>
  <g>
    <g>
      <g>
        <g>
          <path class="cls-16" d="M657.66,570.04c2.94.95,86.8-.14,89.97-2.21,1.22-.77,1.77-13,2.02-27.79,0-.15,0-.31,0-.46.06-3.05-7.75-54.19-7.75-54.19l-56.1.56,9.73,53.73.03.92s-31.91,14.77-35.16,17.42c-3.21,2.63-5.69,11.09-2.75,12.03Z"/>
          <g>
            <path class="cls-13" d="M657.65,570.03c1.51.49,24.3.44,46.57-.01,4.48-.09,8.93-.19,13.18-.31,15.88-.44,29.01-1.09,30.22-1.89,1.21-.76,1.76-12.65,2-27.17,0-.21.01-.41.01-.62,0-.15,0-.32.01-.47h-.06l-54.05.1.03.92s-31.92,14.77-35.15,17.41c-3.22,2.64-5.7,11.1-2.76,12.03Z"/>
            <g>
              <path class="cls-9" d="M658.57,566.77c14.13-.53,71.18-1.34,85.19-.79.11,0,.12.08,0,.09-14,.83-71.05,1.17-85.19.93-.3,0-.3-.22,0-.23Z"/>
              <path class="cls-9" d="M689.52,539.9c5.55-1.11,12.36-.34,16.67,3.56.17.15-.05.39-.23.33-5.51-1.66-10.65-2.7-16.4-3.19-.41-.03-.43-.62-.03-.7Z"/>
              <path class="cls-9" d="M685.53,542.38c5.55-1.11,12.36-.34,16.67,3.56.17.15-.05.39-.23.33-5.51-1.66-10.65-2.7-16.4-3.19-.41-.03-.43-.62-.03-.7Z"/>
              <path class="cls-9" d="M681.55,544.85c5.55-1.11,12.36-.34,16.67,3.56.17.15-.05.39-.23.33-5.51-1.66-10.65-2.7-16.4-3.19-.41-.03-.43-.62-.03-.7Z"/>
            </g>
          </g>
        </g>
        <path class="cls-7" d="M694.43,539.86h56.99s-19.08-120.11-18.61-122.57c.24-1.27,73.69-131.19,73.69-131.19h-64.44s-59.64,92.93-67.83,116.33c-5.95,17.01,20.19,137.44,20.19,137.44Z"/>
        <path class="cls-6" d="M693.05,528.8c3.44-.28,6.86-.56,10.31-.72,3.43-.15,6.86-.18,10.29-.25,6.86-.14,13.71-.24,20.57-.33,1.96-.02,3.91.02,5.87.01,1.94,0,3.93.2,5.87.06.15-.01.14.23,0,.23-1.71.02-3.44.36-5.15.48-1.72.12-3.43.3-5.15.41-3.43.22-6.86.39-10.29.54-6.85.29-13.72.37-20.58.41-3.92.02-7.83-.27-11.74-.55-.18-.01-.17-.26,0-.28Z"/>
        <path class="cls-6" d="M725.07,412.47c.9-3.63,2.97-6.83,4.88-9.99,4.3-7.12,8.6-14.25,12.91-21.37,8.72-14.44,17.5-28.86,26.3-43.25,4.36-7.13,8.76-14.23,13.14-21.34,4.05-6.56,13.22-24.12,14.26-25.82.08-.13.28-.07.22.07-2.94,6.19-6.82,13.91-10.45,20.36-3.99,7.08-8.25,14.01-12.39,21-8.49,14.32-17.13,28.54-25.73,42.79-4.34,7.19-8.7,14.37-13.06,21.55-2.09,3.45-4.25,6.87-6.26,10.37-2.01,3.5-3.24,7.02-3.15,11.1.09,4.09.8,8.21,1.33,12.27.53,4.1,1.07,8.2,1.63,12.3,1.11,8.19,2.26,16.38,3.45,24.57,2.4,16.45,4.9,32.88,7.49,49.3.32,2.04.66,4.08,1,6.12.03.2-.27.27-.3.08-2.94-16.42-5.8-32.85-8.29-49.35-2.49-16.5-4.75-33.03-6.94-49.58-.49-3.7-.96-7.5-.04-11.17Z"/>
      </g>
      <g>
        <g>
          <path class="cls-16" d="M931.4,574.59c-2.95.92-86.8-1.03-89.94-3.13-1.21-.78-1.64-13.01-1.73-27.81,0-.15,0-.31,0-.46-.03-3.05-22.22-54.29-22.22-54.29l54.81,1.12,21.52,53.83-.04.92s31.76,15.1,34.98,17.78c3.19,2.67,5.58,11.15,2.63,12.06Z"/>
          <path class="cls-13" d="M931.4,574.59c-2.95.92-86.8-1.03-89.94-3.13-1.21-.78-1.64-13.01-1.73-27.81,0-.15,0-.31,0-.46,0,0-3.75-10.26-3.76-10.7l54.11.96,3.75,10.4-.04.92s31.76,15.1,34.98,17.78c3.19,2.67,5.58,11.15,2.63,12.06Z"/>
          <g>
            <path class="cls-13" d="M931.4,574.59c-2.95.92-86.8-1.03-89.94-3.13-1.21-.78-1.64-13.01-1.73-27.81,0-.15,0-.31,0-.46l54.11.65-.04.92s31.76,15.1,34.98,17.78c3.19,2.67,5.58,11.15,2.63,12.06Z"/>
            <g>
              <path class="cls-9" d="M930.53,571.32c-14.13-.68-71.16-2.06-85.18-1.66-.11,0-.12.08,0,.09,13.99.97,71.03,1.9,85.18,1.8.3,0,.3-.22,0-.23Z"/>
              <path class="cls-9" d="M899.86,544.13c-5.54-1.17-12.36-.47-16.7,3.39-.17.15.05.39.23.33,5.53-1.6,10.68-2.59,16.43-3.03.41-.03.44-.62.04-.7Z"/>
              <path class="cls-9" d="M903.82,546.65c-5.54-1.17-12.36-.47-16.7,3.39-.17.15.05.39.23.33,5.53-1.6,10.68-2.59,16.44-3.02.41-.03.44-.62.04-.7Z"/>
              <path class="cls-9" d="M907.78,549.16c-5.54-1.17-12.36-.47-16.7,3.39-.17.15.05.39.23.33,5.53-1.6,10.68-2.59,16.43-3.02.41-.03.44-.62.04-.7Z"/>
            </g>
          </g>
        </g>
        <g>
          <path class="cls-7" d="M748.84,286.1s7.72,47.07,8.25,48.58c0,0,2.87,1.36,8.05,3.75l62.54,206.14,69.24.24-82.17-258.72h-65.9Z"/>
          <g>
            <path class="cls-6" d="M754.58,333.22c6.01,2.39,11.77,5.65,17.26,9.04.22.13.05.47-.18.36-5.83-2.83-11.77-5.56-17.44-8.7-.44-.25-.11-.88.35-.69Z"/>
            <path class="cls-6" d="M756.8,306.26c.95,5.63,1.48,11.35,2.11,17.03.15,1.36.31,2.72.46,4.08.13,1.25.28,2.5.98,3.58,1.23,1.9,3.42,2.79,5.41,3.66.23.1.14.46-.12.38-2.02-.63-4.25-1.46-5.74-3.04-1.81-1.92-1.75-4.82-2.03-7.28-.69-6.09-1.35-12.26-1.33-18.39,0-.14.23-.18.26-.03Z"/>
            <path class="cls-6" d="M763.65,307.99c.2,4.06.65,8.11.99,12.16.17,2,.31,4,.43,6,.12,2.03.36,4.12.3,6.16,0,.14-.22.17-.25.03-.33-1.93-.38-3.93-.54-5.88-.17-2.05-.31-4.11-.42-6.16-.23-4.1-.34-8.22-.71-12.31-.01-.13.19-.12.2,0Z"/>
          </g>
          <path class="cls-6" d="M772.49,347.08c4.8,11.68,56.03,179.22,56.57,180.67.04.11-.14.19-.2.08-6.85-13.39-50.57-164.53-54.93-176.31-.54-1.46-1.08-2.92-1.63-4.37-.04-.11.14-.18.19-.08Z"/>
          <path class="cls-6" d="M827.16,532.97c2-.28,4.07-.27,6.09-.41,2.03-.14,4.06-.18,6.09-.23,4.06-.09,8.12-.14,12.19-.19,8.06-.1,16.13-.13,24.2-.13,4.61,0,9.21.25,13.81.34.14,0,.15.22,0,.23-4.06.17-8.12.42-12.18.57-4.06.15-8.12.17-12.18.23-8.18.12-16.37.25-24.55.23-2.27,0-4.54-.01-6.81-.09-2.2-.07-4.48-.05-6.67-.31-.14-.02-.09-.22.03-.24Z"/>
        </g>
      </g>
    </g>
    <g>
      <g>
        <g>
          <path class="cls-16" d="M757.48,215.15c-13.76-9.77-34.52-33.54-38.62-42.91-5.28-12.06-14.56-53.67-10.38-58.53,2.31-2.68,32.33,1.3,34.05,4.65,1.72,3.35,2.53,40,3,42.79.48,2.79,14.19,29.08,21.87,41.61,9.01,14.68-.98,18.76-9.94,12.4Z"/>
          <g>
            <path class="cls-16" d="M708.97,123.6c.04-.27-2.24-3.6-1.4-8,.84-4.4,3.85-9.08,3.01-11.74-1.33-4.23-5.41-11-3.81-12.54,3.29-3.17,7.4-.99,12.14,6.78,1.23,2.02,3.05,7.13,4.58,7.39,2.67.46,3.78-4.2,4.09-8.47.6-8.26-.2-20.36,5.27-21.93,2.07-.59,3.05,2.41,3.49,6.11.21-5.38,1.02-10.71,3.29-11.46,1.3-.43,2.26.17,2.99,1.4.42-1.42,1.19-2.4,2.44-2.6,2.12-.35,3.6,1.54,4.62,4.2.34-.4.82-.64,1.49-.61,5.72.11,8.2,20.82,6.2,26.03-5.88,15.34-16.61,28.59-16.61,28.59-7.68,2.35-31.77-3.14-31.77-3.16Z"/>
            <g>
              <path class="cls-9" d="M735.42,105.2c1.64-3.44,2.63-7.29,2.62-11.11-.01-4.52-1.23-8.94-1.68-13.42-.01-.12-.21-.1-.19.02.32,2.18.42,4.41.66,6.61.23,2.14.53,4.29.61,6.45.14,3.95-.5,7.81-2.09,11.43-.02.04.04.06.06.03Z"/>
              <path class="cls-9" d="M742.69,106.57c1.42-4.11,2.89-8.32,3.45-12.66.61-4.75-.43-9.5-1.4-14.14-.58-2.78-1.22-5.55-1.92-8.31-.03-.12-.21-.1-.19.02,1.03,4.74,1.92,9.51,2.66,14.3.7,4.51.57,8.92-.49,13.36-.6,2.5-1.39,4.95-2.18,7.4-.01.05.05.08.07.03Z"/>
              <path class="cls-9" d="M750.12,106.21c1.61-3.84,3.03-7.18,3.26-11.4.31-5.58-1.12-12.15-1.63-14.46-.57-2.55-1.22-5.09-1.91-7.61-.03-.1-.21-.06-.18.05,1.42,5.66,2.48,11.44,3.16,17.23.32,2.77.35,5.55-.19,8.3-.53,2.71-1.55,5.31-2.53,7.88,0,.02.02.03.03.01Z"/>
            </g>
          </g>
        </g>
        <g>
          <path class="cls-4" d="M745.28,130.5l-38.04,8.05s8.06,29.8,11.35,36.72c3.29,6.91,29.6,37.01,39.87,42.4,10.27,5.39,17.04-.14,10.63-13.89-6.41-13.76-20.46-40.02-21.33-42.96-.87-2.94-2.47-30.32-2.47-30.32Z"/>
          <path class="cls-14" d="M766.8,214.63c-.85.66-1.68,1.37-2.38,2.24,1.03-.44,1.93-1.04,2.8-1.68.85-.66,1.68-1.37,2.37-2.24-1.02.44-1.91,1.04-2.78,1.68ZM758,199.5c-.41,1.03-.62,2.09-.78,3.15-.13,1.07-.22,2.15-.1,3.25.41-1.03.62-2.09.78-3.15.13-1.07.22-2.15.1-3.25ZM720.23,161.1c-.66-.85-1.35-1.68-2.22-2.38.43,1.03,1.03,1.93,1.68,2.8.66.85,1.35,1.68,2.22,2.37-.44-1.02-1.04-1.91-1.68-2.78ZM713.21,137.28l-.72.15c.66.85,1.34,1.66,2.21,2.35-.4-.91-.91-1.72-1.49-2.5ZM747.52,190.75c-.66-.85-1.35-1.68-2.22-2.38.43,1.03,1.03,1.93,1.68,2.8.66.85,1.35,1.68,2.22,2.37-.44-1.02-1.04-1.91-1.68-2.78ZM739.6,164.45c-.85.66-1.68,1.35-2.37,2.22,1.02-.44,1.91-1.03,2.78-1.68.85-.66,1.68-1.35,2.37-2.22-1.02.44-1.91,1.03-2.78,1.68ZM732.9,133.12c-.09.09-.15.16-.22.25.26-.12.53-.24.78-.37l-.56.12ZM751.58,174.68c-1.07-.13-2.15-.22-3.25-.1,1.03.41,2.09.62,3.15.78,1.07.13,2.15.22,3.25.1-1.03-.41-2.09-.62-3.15-.78ZM725.26,146.07c-1.07-.13-2.15-.22-3.25-.1,1.03.41,2.09.63,3.15.79,1.07.13,2.15.22,3.25.1-1.03-.41-2.09-.63-3.15-.79ZM729.66,175.05c-.41,1.03-.62,2.09-.78,3.15-.13,1.07-.22,2.15-.1,3.25.41-1.03.62-2.09.78-3.15.13-1.07.22-2.15.1-3.25ZM744.51,141.3c-.41,1.03-.63,2.1-.79,3.16-.13,1.07-.22,2.15-.1,3.25.41-1.03.63-2.09.78-3.16.15-1.06.24-2.13.12-3.25Z"/>
          <path class="cls-9" d="M743.68,141.15c-5.37,1.41-27.58,6.4-32.45,7.15-.34.05-.45-.15-.11-.25,16.01-4.63,27.16-6,32.5-7.11.13-.03.2.17.06.21Z"/>
          <path class="cls-9" d="M758.46,217.68c-7.35-3.86-22.92-20.38-32.39-31.99l37.02,5.85c2.27,4.5,4.37,8.77,6,12.25,6.41,13.75-.36,19.29-10.63,13.89Z"/>
        </g>
      </g>
      <g>
        <path class="cls-4" d="M818.89,292.61s-88.89,12.27-89.08,12.11c-1.3-1.05,3.31-96.07,6.83-104.22,3.78-8.74,15.55-13.3,22.19-9.59,16.61,9.29,37.69,47.21,42.72,58.98,8.32,19.39,16.77,37.42,17.34,42.72Z"/>
        <path class="cls-14" d="M747.52,190.75l-.03-.03c-.22.07-.44.15-.65.25.04.06.09.13.13.19.66.85,1.35,1.68,2.22,2.37-.44-1.02-1.04-1.91-1.68-2.78ZM745.4,284.21c-.41,1.03-.63,2.1-.79,3.16-.13,1.07-.22,2.15-.1,3.25.41-1.03.63-2.09.78-3.16.15-1.06.24-2.13.12-3.25ZM776.25,224.81c-.41,1.03-.63,2.1-.79,3.16-.13,1.07-.22,2.15-.1,3.25.41-1.03.63-2.09.78-3.16.15-1.06.24-2.13.12-3.25ZM758,199.5c-.41,1.03-.62,2.09-.78,3.15-.13,1.07-.22,2.15-.1,3.25.41-1.03.62-2.09.78-3.15.13-1.07.22-2.15.1-3.25ZM781.37,297.5c-.04.09-.07.19-.1.28.03,0,.07,0,.12-.01,0-.09,0-.18-.01-.26ZM761.4,258.56c-.41,1.03-.62,2.09-.78,3.15-.13,1.07-.22,2.15-.1,3.25.41-1.03.62-2.09.78-3.15.13-1.07.22-2.15.1-3.25ZM737.86,232.07c-.41,1.03-.62,2.09-.78,3.16-.13,1.06-.22,2.13-.1,3.25.41-1.03.62-2.09.78-3.16.13-1.07.22-2.15.1-3.25ZM797.94,264.04c-.43,1.03-.63,2.09-.79,3.16-.13,1.06-.22,2.15-.1,3.25.41-1.03.62-2.09.78-3.16.15-1.07.24-2.15.12-3.25ZM782.44,216.35c-.38,0-.77.01-1.15.06.5.19,1,.35,1.5.47l-.35-.53ZM756.99,229.57c-1.07-.13-2.15-.22-3.25-.1,1.03.41,2.09.63,3.15.79,1.07.13,2.15.22,3.25.1-1.03-.41-2.09-.63-3.15-.79ZM783.41,257.52c-1.07-.13-2.15-.22-3.25-.1,1.03.41,2.09.62,3.15.78,1.07.13,2.15.22,3.25.1-1.03-.41-2.09-.62-3.15-.78ZM733.62,252.45c-.66-.09-1.34-.15-2.03-.16-.01.15-.01.29-.03.44.66.18,1.31.29,1.97.4,1.07.13,2.15.22,3.25.1-1.03-.41-2.09-.62-3.16-.78ZM787.75,288.57c-1.07-.13-2.15-.22-3.25-.1,1.03.41,2.09.62,3.16.78,1.06.13,2.13.22,3.25.1-1.04-.41-2.1-.62-3.16-.78ZM760.2,279.86c-1.07-.13-2.15-.22-3.25-.1,1.03.41,2.09.62,3.16.78,1.06.13,2.13.22,3.25.1-1.04-.41-2.1-.62-3.16-.78ZM732.65,277.21c-.78-.09-1.55-.16-2.34-.16-.01.13-.01.25-.01.37.74.22,1.5.35,2.25.47,1.07.15,2.15.22,3.25.1-1.03-.41-2.09-.62-3.15-.78ZM766.8,214.63c-.85.66-1.68,1.37-2.38,2.24,1.03-.44,1.93-1.04,2.8-1.68.85-.66,1.68-1.37,2.37-2.24-1.02.44-1.91,1.04-2.78,1.68ZM797.79,250.07c-.85.66-1.68,1.35-2.37,2.22,1.02-.44,1.91-1.03,2.78-1.68.85-.66,1.68-1.35,2.37-2.22-1.02.44-1.91,1.03-2.78,1.68ZM770.55,245.51c-.85.66-1.68,1.35-2.37,2.22,1.02-.44,1.91-1.03,2.78-1.68.85-.66,1.68-1.35,2.37-2.22-1.02.44-1.91,1.03-2.78,1.68ZM806.51,286.1c-.85.65-1.68,1.35-2.37,2.22,1.02-.44,1.91-1.04,2.78-1.68.85-.66,1.68-1.37,2.38-2.22-1.03.43-1.93,1.03-2.8,1.68ZM766.78,292.63c-.85.65-1.68,1.35-2.37,2.22,1.02-.44,1.91-1.04,2.78-1.68.85-.66,1.68-1.37,2.38-2.22-1.03.43-1.93,1.03-2.8,1.68ZM743.92,265.02c-.85.65-1.68,1.35-2.37,2.22,1.02-.44,1.91-1.04,2.78-1.68.85-.66,1.68-1.37,2.38-2.22-1.03.43-1.93,1.03-2.8,1.68ZM771.86,202.5c-.1-.15-.22-.29-.34-.43,0-.01-.01-.03-.03-.04-.4-.46-.79-.9-1.19-1.32l-.04-.04c-.19-.19-.4-.37-.62-.54.44,1.03,1.03,1.93,1.68,2.8.66.85,1.35,1.68,2.22,2.37-.44-1.02-1.03-1.91-1.68-2.78ZM788.52,236.57c-.66-.85-1.35-1.68-2.22-2.38.44,1.03,1.03,1.93,1.68,2.8.66.85,1.35,1.68,2.22,2.37-.44-1.02-1.03-1.91-1.68-2.78ZM811.83,273.48h-.01c-.49-.59-.99-1.12-1.59-1.6.43,1.03,1.03,1.93,1.68,2.8.29.37.56.72.88,1.07-.31-.74-.63-1.49-.96-2.27ZM754.37,299.79c.24.56.52,1.07.82,1.56.22-.03.43-.06.65-.09-.44-.53-.91-1.02-1.47-1.47ZM732.97,297.31c-.66-.85-1.35-1.68-2.22-2.38.43,1.03,1.03,1.93,1.68,2.8.66.85,1.35,1.68,2.22,2.37-.44-1.02-1.04-1.91-1.68-2.78ZM779.25,274.26c-.66-.85-1.35-1.68-2.22-2.38.43,1.03,1.03,1.93,1.68,2.8.66.85,1.35,1.68,2.22,2.37-.44-1.02-1.04-1.91-1.68-2.78ZM746.71,215.35c-.66-.85-1.35-1.68-2.22-2.38.43,1.03,1.03,1.93,1.68,2.8.66.85,1.35,1.68,2.22,2.37-.44-1.02-1.04-1.91-1.68-2.78ZM751.96,244.61c-.66-.85-1.35-1.68-2.22-2.38.43,1.03,1.03,1.93,1.68,2.8.66.85,1.35,1.68,2.22,2.37-.44-1.02-1.04-1.91-1.68-2.78Z"/>
      </g>
      <g>
        <g>
          <path class="cls-16" d="M740.78,204.85c4.16.69,14.88-7.53,16.77-14.17.13-.46-1.47-4.59-3.17-9.69-1.02-3.1-2.08-6.58-2.82-9.83l-19.23,9.59s3.55,6.35,4.81,12.01c.1.47.15.93.16,1.36,0,.06,0,.14.02.23.17,2.62-1.34,9.7,3.46,10.5Z"/>
          <path class="cls-9" d="M750.57,171.64c.3,4.56.39,19.44-11.13,22.34-.77.2-1.47.31-2.12.37-.01-.09-.01-.17-.02-.24-.01-.44-.07-.88-.16-1.36-1.25-5.68-4.81-12.01-4.81-12.01l18.24-9.1Z"/>
        </g>
        <g>
          <path class="cls-9" d="M732.36,138.13s-7.42,1.26-10.24,7.86c-2.82,6.6-2.91,14.18-2.39,14.67.51.49,12.63-22.52,12.63-22.52Z"/>
          <path class="cls-16" d="M757.4,152.72c.55,7.72-8.04,27.7-14.24,31.17-8.99,5.03-21.32,2.89-24.99-7.37-3.56-9.94,8.09-35.78,14.79-38.69,9.87-4.29,23.63,3.48,24.44,14.89Z"/>
          <g>
            <g>
              <path class="cls-9" d="M733.13,161.55s.08.11.05.16c-.64,1.32-1.15,2.94-.14,3.92.03.03,0,.1-.04.07-1.38-.87-.69-3.01.13-4.15Z"/>
              <path class="cls-9" d="M734.95,160.69c2.22.8.47,5.19-1.59,4.45-2.03-.73-.27-5.12,1.59-4.45Z"/>
            </g>
            <g>
              <path class="cls-9" d="M725.62,158.25c.01-.06-.13.02-.15.08-.5,1.38-1.31,2.87-2.72,2.83-.04,0-.07.07-.02.08,1.59.39,2.64-1.6,2.89-2.99Z"/>
              <path class="cls-9" d="M724.97,156.35c-2.12-1.04-4.05,3.28-2.08,4.24,1.93.95,3.86-3.37,2.08-4.24Z"/>
            </g>
            <path class="cls-9" d="M738.52,157.21c-.65-.12-1.23-.35-1.87-.54-.71-.21-1.3-.31-1.8-.91-.27-.32-.2-.93.09-1.22.67-.67,1.61-.62,2.48-.4.94.24,1.61.67,2.19,1.45.56.76-.23,1.78-1.09,1.62Z"/>
            <path class="cls-9" d="M723.42,153.95c.48.46,1,.8,1.52,1.21.59.46,1.01.88,1.79.93.42.03.87-.38.94-.78.15-.93-.43-1.67-1.11-2.25-.74-.63-1.48-.92-2.45-.94-.94-.02-1.31,1.22-.68,1.83Z"/>
            <path class="cls-9" d="M730.51,173.58c-.45.19-.95.5-1.46.34-.49-.15-.96-.59-1.32-.93-.04-.03-.1,0-.09.05.14.66.76,1.29,1.43,1.43.66.14,1.18-.27,1.55-.77.05-.07-.04-.14-.11-.11Z"/>
            <path class="cls-9" d="M730.71,168.94c-1.23.88-2.61,1.07-3.91.82-.58-.11-1.16-.32-1.7-.59-.11-.05-.21-.1-.3-.16-.09-.05-.18-.1-.28-.17-.15-.09-.18-.25-.15-.41h0c.02-.06.04-.1.07-.14h0s.05-.13.05-.13c.39-1.06,1.13-2.61,1.13-2.61-.46.04-2.76.14-2.51-.4,2.08-4.42,4.4-9.33,7.4-13.29.09-.14.31,0,.23.13-1.83,4.33-4.41,8.3-6.32,12.62.72.01,1.91-.02,2.45.21.13.1-1.48,2.97-1.62,3.46,0,0,0,.02-.01.05,1.67.93,3.21.93,5.39.43.13-.04.2.1.08.17Z"/>
            <g>
              <path class="cls-9" d="M725.93,168.89s.43,1.62,1.52,2.58c.4.36.88.62,1.46.69,1.2.15,1.63-.84,1.77-1.77.12-.77.04-1.5.04-1.5,0,0-2.18.85-4.78,0Z"/>
              <path class="cls-15" d="M727.45,171.47c.4.36.88.62,1.46.69,1.2.15,1.63-.84,1.77-1.77-1.21-.35-2.68-.02-3.23,1.07Z"/>
            </g>
          </g>
          <g>
            <path class="cls-9" d="M750.63,170.59c-2.45-.18-2.42-7.75-2.15-10.56.24-2.48,2.26-9.85,2.34-10.37.08-.52-11.99,2.56-16.89-1.19-4.9-3.76-6.67-10.15-5.85-12.5.82-2.34,9.96-5.56,16.02-3.56,6.05,2,11.17,12.67,11.17,12.67,0,0-1.47-4.32-1.27-4.55.2-.23,3.44,2.79,3.08,5.8,0,0,.57-3.73.89-3.68.31.05,2.16,4.14.62,6.11,0,0,2.29,4.33,1.34,7.72-.95,3.4-6.41,14.32-9.3,14.11Z"/>
            <path class="cls-9" d="M730.45,145.78c1.38,1.43,2.73,2.93,4.5,3.89,1.9,1.04,4.18,1.35,6.33,1.36,2.2,0,4.34-.38,6.43-1.07,1.82-.6,3.58-1.5,5.45-1.94.47-.11.69.59.33.84-3.55,2.49-8.6,3.76-12.89,3.49-4.52-.28-7.95-2.65-10.18-6.54-.01-.02.01-.06.04-.04Z"/>
          </g>
          <g>
            <path class="cls-16" d="M749.06,168.94s6.37-5.53,9-3.1c2.63,2.44-3.34,11.28-7.24,11.71-3.91.44-4.38-3.17-4.38-3.17l2.63-5.44Z"/>
            <path class="cls-9" d="M756.28,168.33c.06,0,.05.09,0,.1-2.76.39-4.66,2.38-6.19,4.56.98-.74,2.12-.99,3.14.2.05.06-.03.15-.1.12-.97-.48-1.76-.48-2.66.16-.64.46-1.16,1.11-1.68,1.7-.17.19-.55-.03-.4-.26.01-.02.02-.04.04-.05.74-3.21,4.34-7.06,7.85-6.52Z"/>
          </g>
        </g>
      </g>
      <g>
        <g>
          <path class="cls-16" d="M741.17,221.16c-17.8-3.48-52.45-18.8-57.85-22.78-11.32-8.34-34.33-49.2-32.35-55.74,1.09-3.61,32.03-4.77,35.19-2.27,3.16,2.5,16.83,33.11,18.52,35.61s36.61,26.06,44.28,32.78c13.85,12.15,3.8,14.66-7.79,12.4Z"/>
          <g>
            <path class="cls-16" d="M684.01,151.62s6.53-11.68,10.45-19.52c2.18-4.37,5.26-12.2,5.39-16.15.2-5.9-2.73-30.72-8.76-30.14-5.46.53-.24,21.53-.24,21.53,0,0-3.4-21.66-9.85-19.81-6.46,1.84,2.6,24.78,2.6,24.78,0,0-3.99-22.17-10.35-19.22-4.81,2.23,2.23,23.47,2.23,23.47,0,0-3.56-19.03-8.6-16.95-5.57,2.3-.31,22.31-.31,22.31-11.92,7.45-16.71,12.67-15.71,22.09.16,1.52,33.16,7.61,33.16,7.61Z"/>
            <g>
              <path class="cls-9" d="M693.09,116.58c-.31-2.56-.6-5.15-1.13-7.67-.53-2.52-1.16-5.03-1.92-7.49-1.88-6.04-4-9.52-3.89-9.29,2.54,5.43,4.59,14.43,5.12,16.95.53,2.52,1.19,5.01,1.73,7.53.01.06.1.04.1-.02Z"/>
              <path class="cls-9" d="M684.02,118.67c-.53-3.25-.94-6.5-1.62-9.72-.67-3.21-1.77-7.68-2.66-10.84-.07-.24-.45-.25-.39,0,.77,3.19,1.68,7.8,2.4,11,.73,3.19,1.58,6.37,2.19,9.58,0,.05.08.03.08-.02Z"/>
              <path class="cls-9" d="M676.56,121.86c-.56-5.01-2.04-9.91-3.62-14.68-.08-.24-.2-.07-.14.18,1.29,4.86,2.34,8.66,3.58,14.52.02.09.19.09.17-.02Z"/>
            </g>
          </g>
        </g>
        <g>
          <path class="cls-4" d="M654.53,157.26l40.4-4.16s8.41,19.47,10.08,21.79c1.68,2.32,39.55,27.29,47.09,33.55,7.54,6.26,6.25,17.92-10.01,14.72-14.02-2.75-51.94-18.47-59.11-23.27-7.16-4.8-28.46-42.63-28.46-42.63Z"/>
          <path class="cls-14" d="M746.71,215.35c-.66-.85-1.35-1.68-2.22-2.38.43,1.03,1.03,1.93,1.68,2.8.66.85,1.35,1.68,2.22,2.37-.44-1.02-1.04-1.91-1.68-2.78ZM730.53,214.64c-.85.66-1.68,1.35-2.37,2.22,1.02-.44,1.91-1.03,2.78-1.68.85-.66,1.68-1.35,2.37-2.22-1.02.44-1.91,1.03-2.78,1.68ZM732.27,198.66c-1.07-.13-2.15-.22-3.25-.1,1.03.41,2.09.63,3.15.79,1.07.13,2.15.22,3.25.1-1.03-.41-2.09-.63-3.15-.79ZM717.84,205.94c-.41,1.03-.62,2.09-.78,3.16-.13,1.06-.22,2.13-.1,3.25.41-1.03.62-2.09.78-3.16.13-1.07.22-2.15.1-3.25ZM667.26,162.47c-.66-.85-1.35-1.68-2.22-2.38.43,1.03,1.03,1.93,1.68,2.8.66.85,1.35,1.68,2.22,2.37-.44-1.02-1.04-1.91-1.68-2.78ZM709.07,182.79c-.66-.85-1.35-1.68-2.22-2.38.44,1.03,1.03,1.93,1.68,2.8.66.85,1.35,1.68,2.22,2.37-.44-1.02-1.03-1.91-1.68-2.78ZM691.1,187.94c-.85.66-1.68,1.35-2.37,2.22,1.02-.44,1.91-1.03,2.78-1.68.85-.66,1.68-1.35,2.37-2.22-1.02.44-1.91,1.03-2.78,1.68ZM718.35,192.51c-.85.66-1.68,1.35-2.37,2.22,1.02-.44,1.91-1.03,2.78-1.68.85-.66,1.68-1.35,2.37-2.22-1.02.44-1.91,1.03-2.78,1.68ZM687.35,157.07c-.85.66-1.68,1.37-2.38,2.24,1.03-.44,1.93-1.04,2.8-1.68.85-.66,1.68-1.37,2.37-2.24-1.02.44-1.91,1.04-2.78,1.68ZM701.91,200.44c-1.07-.13-2.15-.22-3.25-.1,1.03.41,2.09.62,3.15.78,1.07.13,2.15.22,3.25.1-1.03-.41-2.09-.62-3.15-.78ZM678.65,175.04c-1.07-.13-2.15-.22-3.25-.1,1.03.41,2.09.63,3.15.79,1.07.13,2.15.22,3.25.1-1.03-.41-2.09-.63-3.15-.79ZM686.58,199.5c-.28.69-.46,1.41-.6,2.12.19.1.38.21.59.31.07-.79.1-1.6.01-2.43ZM696.8,167.25c-.41,1.03-.63,2.1-.79,3.16-.13,1.07-.22,2.15-.1,3.25.41-1.03.63-2.09.78-3.16.15-1.06.24-2.13.12-3.25Z"/>
          <g>
            <path class="cls-9" d="M662.94,166.77c5.54-.42,28.16-2.95,33.01-3.83.34-.06.38-.29.02-.27-16.64.85-27.63,3.2-33.04,3.88-.14.02-.13.23,0,.22Z"/>
            <g>
              <path class="cls-9" d="M749.72,226.96c-6.58-2.51-12.84-5.81-18.86-9.47,6.49,2.74,12.71,6.04,18.86,9.47h0Z"/>
              <path class="cls-9" d="M739.91,222.14c-2.24-.35-4.39-1.02-6.42-2.02,2.24.35,4.39,1.02,6.42,2.02h0Z"/>
            </g>
            <path class="cls-9" d="M752.11,208.44c-3-2.01-5.66-4.41-7.97-7.19,3,2.01,5.66,4.41,7.97,7.19h0Z"/>
          </g>
        </g>
      </g>
    </g>
  </g>
</svg>