<?xml version="1.0" encoding="utf-8"?>
<!-- Generator: Adobe Illustrator 28.1.0, SVG Export Plug-In . SVG Version: 6.00 Build 0)  -->
<svg version="1.1" id="Layer_1" xmlns="http://www.w3.org/2000/svg" xmlns:xlink="http://www.w3.org/1999/xlink" x="0px" y="0px"
	 viewBox="0 0 141.7 141.7" style="enable-background:new 0 0 141.7 141.7;" xml:space="preserve">
<style type="text/css">
	.st0{fill:#FFFFFF;}
	.st1{fill:#EF92FF;}
</style>
<g>
	<path class="st0" d="M49.9,82.5h1c0-4.9-4-8.9-8.9-8.9c-4.9,0-8.9,4-8.9,8.9c0,4.9,4,8.9,8.9,8.9c4.9,0,8.9-4,8.9-8.9H49.9h-1
		c0,1.9-0.8,3.7-2.1,5c-1.3,1.3-3,2.1-5,2.1c-1.9,0-3.7-0.8-5-2.1c-1.3-1.3-2.1-3-2.1-5c0-1.9,0.8-3.7,2.1-5c1.3-1.3,3-2.1,5-2.1
		c1.9,0,3.7,0.8,5,2.1c1.3,1.3,2.1,3,2.1,5H49.9z"/>
	<path class="st0" d="M57.6,103.1h-1c0,1.3-0.2,2.6-0.5,3.9l0.9,0.3v-1H26.8v1l0.9-0.3c-0.3-1.2-0.5-2.5-0.5-3.9
		c0-5.3,2.8-9.9,6.9-12.5l-0.5-0.8l-0.7,0.6c2.2,2.5,5.4,4.1,9,4.1c3.6,0,6.8-1.6,9-4.1l-0.7-0.6l-0.5,0.8c4.2,2.6,6.9,7.2,6.9,12.5
		H57.6h1c0-6-3.1-11.2-7.8-14.1L50,88.6l-0.5,0.6c-1.9,2.1-4.6,3.4-7.6,3.4c-3,0-5.8-1.3-7.6-3.4l-0.5-0.6L33.1,89
		c-4.7,2.9-7.8,8.2-7.8,14.1c0,1.5,0.2,3,0.6,4.4l0.2,0.7h31.7l0.2-0.7c0.4-1.4,0.6-2.9,0.6-4.4H57.6z"/>
	<path class="st1" d="M79.8,42.4h1c0-4.9-4-8.9-8.9-8.9c-4.9,0-8.9,4-8.9,8.9c0,4.9,4,8.9,8.9,8.9c4.9,0,8.9-4,8.9-8.9H79.8h-1
		c0,1.9-0.8,3.7-2.1,5c-1.3,1.3-3,2.1-5,2.1c-1.9,0-3.7-0.8-5-2.1c-1.3-1.3-2.1-3-2.1-5c0-1.9,0.8-3.7,2.1-5c1.3-1.3,3-2.1,5-2.1
		c1.9,0,3.7,0.8,5,2.1c1.3,1.3,2.1,3,2.1,5H79.8z"/>
	<path class="st1" d="M87.5,63.1h-1c0,1.3-0.2,2.6-0.5,3.9l0.9,0.3v-1H56.7v1l0.9-0.3c-0.3-1.2-0.5-2.5-0.5-3.9
		c0-5.3,2.8-9.9,6.9-12.5l-0.5-0.8l-0.7,0.6c2.2,2.5,5.4,4.1,9,4.1c3.6,0,6.8-1.6,9-4.1l-0.7-0.6l-0.5,0.8c4.2,2.6,6.9,7.2,6.9,12.5
		H87.5h1c0-6-3.1-11.2-7.8-14.1L80,48.5l-0.5,0.6c-1.9,2.1-4.6,3.4-7.6,3.4c-3,0-5.8-1.3-7.6-3.4l-0.5-0.6L63,49
		c-4.7,2.9-7.8,8.2-7.8,14.1c0,1.5,0.2,3,0.6,4.4l0.2,0.7h31.7l0.2-0.7c0.4-1.4,0.6-2.9,0.6-4.4H87.5z"/>
	<path class="st0" d="M107.9,82.5h1c0-4.9-4-8.9-8.9-8.9c-4.9,0-8.9,4-8.9,8.9c0,4.9,4,8.9,8.9,8.9c4.9,0,8.9-4,8.9-8.9H107.9h-1
		c0,1.9-0.8,3.7-2.1,5c-1.3,1.3-3,2.1-5,2.1c-1.9,0-3.7-0.8-5-2.1c-1.3-1.3-2.1-3-2.1-5c0-1.9,0.8-3.7,2.1-5c1.3-1.3,3-2.1,5-2.1
		c1.9,0,3.7,0.8,5,2.1c1.3,1.3,2.1,3,2.1,5H107.9z"/>
	<path class="st0" d="M115.6,103.1h-1c0,1.3-0.2,2.6-0.5,3.9l0.9,0.3v-1H84.8v1l0.9-0.3c-0.3-1.2-0.5-2.5-0.5-3.9
		c0-5.3,2.8-9.9,6.9-12.5l-0.5-0.8l-0.7,0.6c2.2,2.5,5.4,4.1,9,4.1c3.6,0,6.8-1.6,9-4.1l-0.7-0.6l-0.5,0.8c4.2,2.6,6.9,7.2,6.9,12.5
		H115.6h1c0-6-3.1-11.2-7.8-14.1l-0.7-0.4l-0.5,0.6c-1.9,2.1-4.6,3.4-7.6,3.4c-3,0-5.8-1.3-7.6-3.4l-0.5-0.6L91.1,89
		c-4.7,2.9-7.8,8.2-7.8,14.1c0,1.5,0.2,3,0.6,4.4l0.2,0.7h31.7l0.2-0.7c0.4-1.4,0.6-2.9,0.6-4.4H115.6z"/>
	<polyline class="st1" points="70.9,71.7 70.9,84 72.8,84 72.8,71.7 	"/>
	<polyline class="st0" points="61.7,91 72.3,84.8 71.4,83.2 60.7,89.3 	"/>
	<polyline class="st0" points="83,89.3 72.3,83.2 71.4,84.8 82,91 	"/>
	<path class="st1" d="M131.6,140.9v-0.4H10.2c-2.5,0-4.7-1-6.4-2.6c-1.6-1.6-2.6-3.9-2.6-6.4V10.2c0-2.5,1-4.7,2.6-6.4
		c1.6-1.6,3.9-2.6,6.4-2.6h121.3c2.5,0,4.7,1,6.4,2.6c1.6,1.6,2.6,3.9,2.6,6.4v121.3c0,2.5-1,4.7-2.6,6.4c-1.6,1.6-3.9,2.6-6.4,2.6
		V140.9v0.4c5.4,0,9.8-4.4,9.8-9.8V10.2c0-5.4-4.4-9.8-9.8-9.8H10.2c-5.4,0-9.8,4.4-9.8,9.8v121.3c0,5.4,4.4,9.8,9.8,9.8h121.3
		V140.9z"/>
</g>
</svg>
