<?xml version="1.0" encoding="utf-8"?>
<!-- Generator: Adobe Illustrator 28.1.0, SVG Export Plug-In . SVG Version: 6.00 Build 0)  -->
<svg version="1.1" id="Layer_1" xmlns="http://www.w3.org/2000/svg" xmlns:xlink="http://www.w3.org/1999/xlink" x="0px" y="0px"
	 viewBox="0 0 141.7 141.7" style="enable-background:new 0 0 141.7 141.7;" xml:space="preserve">
<style type="text/css">
	.st0{fill:#EF92FF;}
	.st1{fill:#FFFFFF;}
</style>
<g>
	<path class="st0" d="M131.9,141.5v-0.4H9.9c-2.5,0-4.8-1-6.4-2.7c-1.6-1.6-2.7-3.9-2.7-6.4V10c0-2.5,1-4.8,2.7-6.4
		C5.1,2,7.4,1,9.9,1h122c2.5,0,4.8,1,6.4,2.7c1.6,1.6,2.7,3.9,2.7,6.4v122c0,2.5-1,4.8-2.7,6.4c-1.6,1.6-3.9,2.7-6.4,2.7V141.5v0.4
		c5.4,0,9.8-4.4,9.9-9.9V10c0-5.4-4.4-9.8-9.9-9.9H9.9C4.4,0.2,0,4.6,0,10v122c0,5.4,4.4,9.8,9.9,9.9h122V141.5z"/>
	<path class="st0" d="M64.4,42.6h1c0-1.3,0.5-2.4,1.4-3.3c0.8-0.8,2-1.4,3.3-1.4c1.3,0,2.4,0.5,3.3,1.4c0.8,0.8,1.4,2,1.4,3.3
		c0,1.3-0.5,2.4-1.4,3.3c-0.8,0.8-2,1.4-3.3,1.4c-1.3,0-2.4-0.5-3.3-1.4c-0.8-0.8-1.4-2-1.4-3.3H64.4h-1c0,3.7,3,6.6,6.6,6.6
		c3.7,0,6.6-3,6.6-6.6c0-3.7-3-6.6-6.6-6.6c-3.7,0-6.6,3-6.6,6.6H64.4z"/>
	<path class="st0" d="M58.7,61.2c0-4.5,2.6-8.4,6.4-10.2l-0.4-0.9L64.1,51c1.8,1,3.8,1.5,5.9,1.5c2.1,0,4.2-0.6,5.9-1.5l-0.5-0.9
		L75.1,51c3.8,1.9,6.4,5.7,6.4,10.2c0,0.6,0.4,1,1,1c0.6,0,1-0.4,1-1c0-5.3-3.1-9.8-7.5-12L75.5,49L75,49.2c-1.5,0.8-3.2,1.3-5,1.3
		c-1.8,0-3.5-0.5-5-1.3L64.6,49l-0.5,0.2c-4.4,2.2-7.5,6.7-7.5,12c0,0.6,0.4,1,1,1C58.2,62.2,58.7,61.8,58.7,61.2z"/>
	<path class="st1" d="M36,108.2h1c0-1.3,0.5-2.4,1.4-3.3c0.8-0.8,2-1.4,3.3-1.4c1.3,0,2.4,0.5,3.3,1.4c0.8,0.8,1.4,2,1.4,3.3
		c0,1.3-0.5,2.4-1.4,3.3c-0.8,0.8-2,1.4-3.3,1.4c-1.3,0-2.4-0.5-3.3-1.4c-0.8-0.8-1.4-2-1.4-3.3H36h-1c0,3.7,3,6.6,6.6,6.6
		c3.7,0,6.6-3,6.6-6.6c0-3.7-3-6.6-6.6-6.6c-3.7,0-6.6,3-6.6,6.6H36z"/>
	<path class="st1" d="M30.3,126.8c0-4.5,2.6-8.4,6.4-10.2l-0.4-0.9l-0.5,0.9c1.8,1,3.8,1.5,5.9,1.5c2.1,0,4.2-0.6,5.9-1.5l-0.5-0.9
		l-0.4,0.9c3.8,1.9,6.4,5.7,6.4,10.2c0,0.6,0.4,1,1,1c0.6,0,1-0.4,1-1c0-5.3-3.1-9.8-7.5-12l-0.5-0.2l-0.5,0.3
		c-1.5,0.8-3.2,1.3-5,1.3c-1.8,0-3.5-0.5-5-1.3l-0.5-0.3l-0.5,0.2c-4.4,2.2-7.5,6.7-7.5,12c0,0.6,0.4,1,1,1
		C29.9,127.8,30.3,127.4,30.3,126.8z"/>
	<path class="st1" d="M64.8,108.2h1c0-1.3,0.5-2.4,1.4-3.3c0.8-0.8,2-1.4,3.3-1.4c1.3,0,2.4,0.5,3.3,1.4c0.8,0.8,1.4,2,1.4,3.3
		c0,1.3-0.5,2.4-1.4,3.3c-0.8,0.8-2,1.4-3.3,1.4c-1.3,0-2.4-0.5-3.3-1.4c-0.8-0.8-1.4-2-1.4-3.3H64.8h-1c0,3.7,3,6.6,6.6,6.6
		c3.7,0,6.6-3,6.6-6.6c0-3.7-3-6.6-6.6-6.6c-3.7,0-6.6,3-6.6,6.6H64.8z"/>
	<path class="st1" d="M59.1,126.8c0-4.5,2.6-8.4,6.4-10.2l-0.4-0.9l-0.5,0.9c1.8,1,3.8,1.5,5.9,1.5c2.1,0,4.2-0.6,5.9-1.5l-0.5-0.9
		l-0.4,0.9c3.8,1.9,6.4,5.7,6.4,10.2c0,0.6,0.4,1,1,1s1-0.4,1-1c0-5.3-3.1-9.8-7.5-12l-0.5-0.2l-0.5,0.3c-1.5,0.8-3.2,1.3-5,1.3
		c-1.8,0-3.5-0.5-5-1.3l-0.5-0.3l-0.5,0.2c-4.4,2.2-7.5,6.7-7.5,12c0,0.6,0.4,1,1,1C58.6,127.8,59.1,127.4,59.1,126.8z"/>
	<path class="st1" d="M93.7,108.2h1c0-1.3,0.5-2.4,1.4-3.3c0.8-0.8,2-1.4,3.3-1.4c1.3,0,2.4,0.5,3.3,1.4c0.8,0.8,1.4,2,1.4,3.3
		c0,1.3-0.5,2.4-1.4,3.3c-0.8,0.8-2,1.4-3.3,1.4c-1.3,0-2.4-0.5-3.3-1.4c-0.8-0.8-1.4-2-1.4-3.3H93.7h-1c0,3.7,3,6.6,6.6,6.6
		c3.7,0,6.6-3,6.6-6.6c0-3.7-3-6.6-6.6-6.6c-3.7,0-6.6,3-6.6,6.6H93.7z"/>
	<path class="st1" d="M87.9,126.8c0-4.5,2.6-8.4,6.4-10.2l-0.4-0.9l-0.5,0.9c1.8,1,3.8,1.5,5.9,1.5c2.1,0,4.2-0.6,5.9-1.5l-0.5-0.9
		l-0.4,0.9c3.8,1.9,6.4,5.7,6.4,10.2c0,0.6,0.4,1,1,1c0.6,0,1-0.4,1-1c0-5.3-3.1-9.8-7.5-12l-0.5-0.2l-0.5,0.3
		c-1.5,0.8-3.2,1.3-5,1.3c-1.8,0-3.5-0.5-5-1.3l-0.5-0.3l-0.5,0.2c-4.4,2.2-7.5,6.7-7.5,12c0,0.6,0.4,1,1,1S87.9,127.4,87.9,126.8z"
		/>
	<polygon class="st0" points="89.6,61.2 89.6,60.2 50.3,60.2 50.3,69.3 90.6,69.3 90.6,60.2 89.6,60.2 89.6,61.2 88.6,61.2 
		88.6,67.3 52.3,67.3 52.3,62.2 89.6,62.2 89.6,61.2 88.6,61.2 	"/>
	<path class="st0" d="M52.7,68.3v24.8h35.4V68.3c0-0.6-0.4-1-1-1s-1,0.4-1,1v22.8H54.8V68.3c0-0.6-0.4-1-1-1
		C53.2,67.3,52.7,67.8,52.7,68.3z"/>
	<path class="st0" d="M95.9,11.7v-1c-8.8,0-16,7.1-16,16c0,3.6,1.2,6.9,3.2,9.6l0.8-0.6l-1-0.1L81.7,46l9.7-4.3l-0.4-0.9l-0.3,0.9
		c1.7,0.6,3.5,0.9,5.4,0.9c8.8,0,16-7.1,16-16c0-8.8-7.1-16-16-16V11.7v1c3.9,0,7.3,1.6,9.9,4.1c2.5,2.5,4.1,6,4.1,9.9
		c0,3.9-1.6,7.3-4.1,9.9c-2.5,2.5-6,4.1-9.9,4.1c-1.6,0-3.2-0.3-4.7-0.8l-0.4-0.1l-6.8,3l0.9-7.3l-0.2-0.3C83,32.7,82,29.8,82,26.7
		c0-3.9,1.6-7.3,4.1-9.9c2.5-2.5,6-4.1,9.9-4.1V11.7z"/>
	<path class="st0" d="M89.5,23.9h12.8c0.6,0,1-0.4,1-1c0-0.6-0.4-1-1-1H89.5c-0.6,0-1,0.4-1,1C88.5,23.4,89,23.9,89.5,23.9"/>
	<path class="st0" d="M89.5,28.2h12.8c0.6,0,1-0.4,1-1c0-0.6-0.4-1-1-1H89.5c-0.6,0-1,0.4-1,1C88.5,27.8,89,28.2,89.5,28.2"/>
	<path class="st0" d="M89.5,32.6h7.4c0.6,0,1-0.4,1-1s-0.4-1-1-1h-7.4c-0.6,0-1,0.4-1,1S89,32.6,89.5,32.6"/>
</g>
</svg>
