<?xml version="1.0" encoding="utf-8"?>
<!-- Generator: Adobe Illustrator 28.1.0, SVG Export Plug-In . SVG Version: 6.00 Build 0)  -->
<svg version="1.1" id="Layer_1" xmlns="http://www.w3.org/2000/svg" xmlns:xlink="http://www.w3.org/1999/xlink" x="0px" y="0px"
	 viewBox="0 0 141.7 141.7" style="enable-background:new 0 0 141.7 141.7;" xml:space="preserve">
<style type="text/css">
	.st0{fill:#EF92FF;}
	.st1{fill:#FFFFFF;}
</style>
<g>
	<path class="st0" d="M131.4,140.7v-0.4h-121c-2.5,0-4.7-1-6.3-2.6c-1.6-1.6-2.6-3.9-2.6-6.3l0-121c0-2.5,1-4.7,2.6-6.3
		c1.6-1.6,3.9-2.6,6.3-2.6h121c2.5,0,4.7,1,6.3,2.6c1.6,1.6,2.6,3.9,2.6,6.3v121c0,2.5-1,4.7-2.6,6.3c-1.6,1.6-3.9,2.6-6.3,2.6
		V140.7v0.4c5.4,0,9.8-4.4,9.8-9.8v-121c0-5.4-4.4-9.8-9.8-9.8h-121C5,0.6,0.6,5,0.6,10.4l0,121c0,5.4,4.4,9.8,9.8,9.8h121V140.7z"
		/>
	<polygon class="st0" points="114.3,47.3 114.3,48.4 121.4,48.4 121.4,96.1 115.5,96.1 115.5,47.3 114.3,47.3 114.3,48.4 
		114.3,47.3 113.2,47.3 113.2,98.4 123.8,98.4 123.8,46.1 113.2,46.1 113.2,47.3 	"/>
	<polygon class="st0" points="95,56.4 95,57.6 102.1,57.6 102.1,96.1 96.2,96.1 96.2,56.4 95,56.4 95,57.6 95,56.4 93.9,56.4 
		93.9,98.4 104.5,98.4 104.5,55.3 93.9,55.3 93.9,56.4 	"/>
	<polygon class="st0" points="76.4,65.3 76.4,66.5 83.5,66.5 83.5,96.1 77.6,96.1 77.6,65.3 76.4,65.3 76.4,66.5 76.4,65.3 
		75.2,65.3 75.2,98.4 85.8,98.4 85.8,64.1 75.2,64.1 75.2,65.3 	"/>
	<polygon class="st0" points="59.1,72.3 59.1,73.4 66.2,73.4 66.2,96.1 60.3,96.1 60.3,72.3 59.1,72.3 59.1,73.4 59.1,72.3 
		57.9,72.3 57.9,98.4 68.5,98.4 68.5,71.1 57.9,71.1 57.9,72.3 	"/>
	<polyline class="st0" points="61.6,54 103.8,34.7 102.8,32.5 60.6,51.8 	"/>
	<polygon class="st0" points="100.7,27.4 100.5,28.6 110.7,30.1 106.1,37.5 101.8,27 100.7,27.4 100.5,28.6 100.7,27.4 99.6,27.9 
		105.6,42.7 114.6,28.3 98.8,25.9 99.6,27.9 	"/>
	<path class="st0" d="M121.2,106v-1.2H60.5c-5.4,0-9.8,4.4-9.8,9.8v1.2H131v-1.2c0-5.4-4.4-9.8-9.8-9.8V106v1.2
		c2.1,0,3.9,0.8,5.3,2.2c1.4,1.4,2.2,3.2,2.2,5.3h1.2v-1.2h-78v1.2H53c0-2.1,0.8-3.9,2.2-5.3c1.4-1.4,3.2-2.2,5.3-2.2h60.7V106z"/>
	<polyline class="st1" points="17.2,100 17.2,100 17.2,101.2 17.2,101.2 	"/>
	<polyline class="st1" points="35,99.7 35,99.7 35,101 35,101 	"/>
	<path class="st1" d="M39.2,102.9c0.4,0.3,0.7,0.6,0.9,0.9c0.2,0.3,0.3,0.6,0.3,0.9c0,0.2-0.1,0.5-0.2,0.8c-0.3,0.5-0.8,1-1.6,1.4
		c-1.2,0.7-2.9,1.3-5,1.8c-2.1,0.4-4.5,0.7-7.1,0.7c-3.9,0-7.5-0.6-10-1.5c-1.3-0.5-2.3-1-2.9-1.6c-0.3-0.3-0.6-0.6-0.7-0.8
		c-0.1-0.3-0.2-0.5-0.2-0.8c0-0.3,0.1-0.6,0.4-1l-1-0.8c-0.4,0.5-0.6,1.1-0.6,1.8c0,0.5,0.1,1,0.4,1.4c0.4,0.7,1.1,1.4,2,1.9
		c1.4,0.8,3.2,1.5,5.4,1.9c2.2,0.5,4.7,0.7,7.3,0.7c4.1,0,7.7-0.6,10.4-1.6c1.4-0.5,2.5-1.1,3.3-1.8c0.4-0.4,0.7-0.7,1-1.2
		c0.2-0.4,0.4-0.9,0.4-1.4c0-0.5-0.2-1.1-0.5-1.5c-0.3-0.5-0.7-0.9-1.2-1.3L39.2,102.9z"/>
	<path class="st1" d="M11.5,109.3c0,0.5,0.1,1,0.4,1.4c0.4,0.7,1.1,1.4,2,1.9c1.4,0.8,3.2,1.5,5.4,1.9c2.2,0.5,4.7,0.7,7.3,0.7
		c4.1,0,7.7-0.6,10.5-1.6c1.4-0.5,2.5-1.1,3.3-1.8c0.4-0.4,0.7-0.7,1-1.2c0.2-0.4,0.4-0.9,0.4-1.4h-1.3c0,0.2-0.1,0.5-0.2,0.8
		c-0.3,0.5-0.8,1-1.6,1.4c-1.2,0.7-2.9,1.3-5,1.8c-2.1,0.4-4.5,0.7-7.1,0.7c-3.9,0-7.5-0.6-10-1.5c-1.3-0.5-2.3-1-2.9-1.6
		c-0.3-0.3-0.6-0.6-0.7-0.8c-0.1-0.3-0.2-0.5-0.2-0.8H11.5z"/>
	<polyline class="st1" points="11.5,104.6 11.5,109.3 12.7,109.3 12.7,104.6 	"/>
	<polyline class="st1" points="40.4,104.6 40.4,109.3 41.7,109.3 41.7,104.6 	"/>
	<path class="st1" d="M14.5,92.2c-1.2,0.5-2.1,1.1-2.8,1.7c-0.4,0.3-0.6,0.7-0.8,1.1c-0.2,0.4-0.3,0.8-0.3,1.3c0,0.5,0.1,1,0.4,1.4
		c0.4,0.7,1.1,1.4,2,1.9c1.4,0.8,3.2,1.5,5.4,1.9c2.2,0.5,4.7,0.7,7.3,0.7c3.3,0,6.4-0.4,8.9-1.1c1.3-0.4,2.4-0.8,3.3-1.3
		c0.9-0.5,1.7-1,2.2-1.7l-0.5-0.4l0.4,0.4l0,0l-0.9-0.9l0,0l0,0l0,0c-0.4,0.5-1,0.9-1.8,1.4c-1.2,0.7-2.9,1.2-4.9,1.6
		c-2,0.4-4.3,0.6-6.7,0.6c-3.9,0-7.5-0.6-10-1.5c-1.3-0.5-2.3-1-2.9-1.6c-0.3-0.3-0.6-0.6-0.7-0.8c-0.1-0.3-0.2-0.5-0.2-0.8
		c0-0.2,0.1-0.5,0.2-0.7c0.2-0.4,0.5-0.8,1-1.1c0.5-0.4,1.2-0.8,2-1.1L14.5,92.2z"/>
	<path class="st1" d="M10.5,101c0,0.5,0.1,1,0.4,1.4c0.4,0.7,1.1,1.4,2,1.9c1.4,0.8,3.2,1.5,5.4,1.9c2.2,0.5,4.7,0.7,7.3,0.7
		c4.1,0,7.7-0.6,10.5-1.6c1.4-0.5,2.5-1.1,3.3-1.8c0.4-0.4,0.7-0.7,1-1.2c0.2-0.4,0.4-0.9,0.4-1.4h-1.3c0,0.2-0.1,0.5-0.2,0.8
		c-0.3,0.5-0.8,1-1.6,1.4c-1.2,0.7-2.9,1.3-5,1.8c-2.1,0.4-4.5,0.7-7.1,0.7c-3.9,0-7.5-0.6-10-1.5c-1.3-0.5-2.3-1-2.9-1.6
		c-0.3-0.3-0.6-0.6-0.7-0.8c-0.1-0.3-0.2-0.5-0.2-0.8H10.5z"/>
	<polyline class="st1" points="10.5,96.3 10.5,101 11.8,101 11.8,96.3 	"/>
	<polyline class="st1" points="40.7,101 40.7,97.5 39.5,97.5 39.5,101 	"/>
	<path class="st1" d="M43.7,89.4h-0.6c0,0.2-0.1,0.5-0.2,0.8c-0.3,0.5-0.8,1-1.6,1.4c-1.2,0.7-2.9,1.3-5,1.8
		c-2.1,0.4-4.5,0.7-7.1,0.7c-3.9,0-7.5-0.6-10-1.5c-1.3-0.5-2.3-1-2.9-1.6c-0.3-0.3-0.6-0.6-0.7-0.8c-0.1-0.3-0.2-0.5-0.2-0.8l0,0
		l-0.1,0l0.1,0l0,0l-0.1,0l0.1,0l-0.2,0l0.2,0l0,0l-0.2,0l0.2,0l-0.6-0.1l-0.3,0.5c1.4,0.8,3.2,1.4,5.3,1.9c2.1,0.4,4.6,0.7,7.2,0.7
		c4,0,7.6-0.6,10.3-1.5c1.4-0.5,2.5-1.1,3.3-1.8c0.4-0.3,0.8-0.7,1-1.1c0.3-0.4,0.4-0.9,0.4-1.3l-0.6,0l-0.3,0.6
		c0.7,0.4,1.2,0.8,1.5,1.2c0.3,0.4,0.5,0.8,0.5,1.1H43.7h0.6c0-0.7-0.3-1.3-0.7-1.9c-0.5-0.6-1.1-1.1-1.8-1.5l-0.9-0.5l-0.1,1
		c0,0.2-0.1,0.5-0.3,0.8c-0.3,0.5-0.8,1-1.6,1.4c-1.2,0.7-2.9,1.3-5,1.7c-2.1,0.4-4.4,0.7-7,0.7c-2.5,0-4.9-0.2-6.9-0.7
		c-2-0.4-3.8-1-5-1.7l-0.8-0.5l-0.2,0.9c0,0.1,0,0.2,0,0.2c0,0.5,0.1,1,0.4,1.4c0.4,0.7,1.1,1.4,2,1.9c1.4,0.8,3.2,1.5,5.4,1.9
		c2.2,0.5,4.7,0.7,7.3,0.7c4.1,0,7.7-0.6,10.5-1.6c1.4-0.5,2.5-1.1,3.3-1.8c0.4-0.4,0.7-0.7,1-1.2c0.2-0.4,0.4-0.9,0.4-1.4H43.7z"/>
	<path class="st1" d="M14.2,94c0,0.5,0.1,1,0.4,1.4c0.4,0.7,1.1,1.4,2,1.9c1.4,0.8,3.2,1.5,5.4,1.9c2.2,0.5,4.7,0.7,7.3,0.7
		c4.1,0,7.7-0.6,10.5-1.6c1.4-0.5,2.5-1.1,3.3-1.8c0.4-0.4,0.7-0.7,1-1.2c0.2-0.4,0.4-0.9,0.4-1.4h-1.3c0,0.2-0.1,0.5-0.2,0.8
		c-0.3,0.5-0.8,1-1.6,1.4c-1.2,0.7-2.9,1.3-5,1.8c-2.1,0.4-4.5,0.7-7.1,0.7c-3.9,0-7.5-0.6-10-1.5c-1.3-0.5-2.3-1-2.9-1.6
		c-0.3-0.3-0.6-0.6-0.7-0.8c-0.1-0.3-0.2-0.5-0.2-0.8H14.2z"/>
	<polyline class="st1" points="14.2,89.4 14.2,94 15.4,94 15.4,89.4 	"/>
	<polyline class="st1" points="43.1,89.4 43.1,94 44.4,94 44.4,89.4 	"/>
	<path class="st1" d="M15.1,88.7c-0.7-0.4-1.2-0.8-1.5-1.2c-0.3-0.4-0.5-0.8-0.5-1.1h-1.3c0,0.7,0.3,1.3,0.7,1.9
		c0.5,0.6,1.1,1.1,1.8,1.5L15.1,88.7z"/>
	<path class="st1" d="M40.8,86.4L40.8,86.4L40.8,86.4L40.8,86.4L40.8,86.4L40.8,86.4L40.8,86.4l0.2,0.1L40.8,86.4L40.8,86.4l0.2,0.1
		L40.8,86.4l1.3,0.2c0-0.1,0-0.2,0-0.2H40.8z"/>
	<polyline class="st1" points="11.9,81.7 11.9,86.4 13.2,86.4 13.2,81.7 	"/>
	<polygon class="st1" points="42.1,86.4 42.1,81.8 42.1,81.7 42.1,81.7 40.8,81.7 40.8,81.7 40.8,81.8 40.8,86.4 	"/>
	<path class="st1" d="M41.5,77.2h-0.6l0,0l0.3,0l-0.3-0.1l0,0.1l0.3,0l-0.3-0.1l0,0.1l0,0.1c0,0.3-0.1,0.5-0.3,0.8
		c-0.2,0.3-0.5,0.6-0.9,0.9l0,0c-0.5,0.4-1.1,0.7-1.8,1l0,0l0,0c-2.5,1.1-6.4,1.8-10.8,1.8c-3.2,0-6.2-0.4-8.6-1.1l0,0
		c-1.7-0.5-3.1-1.1-3.9-1.7c-0.4-0.3-0.8-0.7-1-1c-0.2-0.3-0.3-0.6-0.3-0.9c0-0.2,0.1-0.5,0.2-0.8c0.3-0.5,0.8-1,1.6-1.4
		c1.2-0.7,2.9-1.3,5-1.8c2.1-0.4,4.5-0.7,7.1-0.7c3.9,0,7.5,0.6,10,1.5c1.3,0.5,2.3,1,2.9,1.6c0.3,0.3,0.6,0.6,0.7,0.8
		c0.1,0.3,0.2,0.5,0.2,0.8H41.5h0.6c0-0.5-0.1-1-0.4-1.4c-0.4-0.7-1.1-1.4-2-1.9c-1.4-0.8-3.2-1.5-5.4-1.9c-2.2-0.5-4.7-0.7-7.3-0.7
		c-4.1,0-7.7,0.6-10.5,1.6c-1.4,0.5-2.5,1.1-3.3,1.8c-0.4,0.4-0.7,0.7-1,1.2c-0.2,0.4-0.4,0.9-0.4,1.4c0,0.6,0.2,1.1,0.5,1.6
		c0.5,0.7,1.2,1.3,2.2,1.9c1,0.5,2.1,1,3.5,1.4l0,0c2.5,0.7,5.6,1.1,8.9,1.1c4.5,0,8.5-0.7,11.3-1.9l0,0c0.8-0.3,1.5-0.7,2.1-1.2
		l0,0c0.5-0.4,0.9-0.8,1.2-1.2c0.3-0.4,0.5-0.9,0.5-1.5l-0.6,0l0.6,0.2c0-0.1,0-0.1,0-0.2l0-0.1H41.5z"/>
	<path class="st1" d="M11.9,81.9c0,0.1,0,0.3,0,0.4l0.6-0.1l-0.6,0.1c0,0.3,0.1,0.6,0.3,0.8l0,0l0,0c0,0.1,0.1,0.2,0.2,0.3l0,0l0,0
		l0,0c0.1,0.1,0.1,0.2,0.2,0.3l0.5-0.4l-0.5,0.4c0.1,0.1,0.2,0.2,0.3,0.4l0.4-0.5L13,84.1c0.1,0.1,0.2,0.2,0.4,0.4l0.4-0.5l-0.4,0.5
		c0.1,0.1,0.3,0.2,0.4,0.3l0.3-0.5l-0.4,0.5c0.1,0.1,0.3,0.2,0.5,0.3l0.3-0.6L14.1,85c0.1,0.1,0.3,0.2,0.4,0.2l0,0l0,0l0.1,0.1
		l0.3-0.6l-0.3,0.5c0.2,0.1,0.3,0.2,0.5,0.3l0.3-0.6l-0.3,0.6c0.3,0.1,0.6,0.3,1,0.4l0.2-0.6L16,86c0.1,0.1,0.3,0.1,0.5,0.2l0.2-0.6
		l-0.2,0.6c0.3,0.1,0.6,0.2,0.9,0.3l0.2-0.6l-0.2,0.6c0.2,0.1,0.4,0.1,0.7,0.2l0.2-0.6L18,86.7c0.2,0.1,0.4,0.1,0.6,0.2l0.1-0.6
		l-0.2,0.6c0.2,0.1,0.4,0.1,0.7,0.2l0.1-0.6L19.3,87c0.4,0.1,0.9,0.2,1.4,0.3l0,0c0.3,0,0.6,0.1,0.8,0.1l0.1-0.6l-0.1,0.6
		c0.2,0,0.4,0.1,0.5,0.1l0.1-0.6l-0.1,0.6c0.2,0,0.5,0.1,0.7,0.1l0.1-0.6l-0.1,0.6c0.2,0,0.5,0.1,0.7,0.1l0-0.6l-0.1,0.6
		c0.4,0,0.8,0.1,1.2,0.1l0-0.6l0,0.6c0.4,0,0.8,0,1.3,0.1l0-0.6l0,0.6c0.2,0,0.4,0,0.6,0v-0.6l0,0.6c0.2,0,0.4,0,0.6,0
		c0.5,0,1,0,1.5,0l0,0c0.8,0,1.7-0.1,2.4-0.2l0,0l0,0c0.3,0,0.7-0.1,1-0.1l0,0l0,0c0.2,0,0.4-0.1,0.7-0.1l-0.1-0.6l0.1,0.6
		c0.7-0.1,1.3-0.2,1.9-0.4l-0.1-0.6l0.1,0.6c0.3-0.1,0.5-0.1,0.8-0.2l-0.2-0.6l0.1,0.6c0.3-0.1,0.6-0.2,0.9-0.3L36.1,86v0.6h0h0.1
		l0.1,0c0.3-0.1,0.6-0.2,0.9-0.3L37,85.7l0.2,0.6c0.2-0.1,0.4-0.1,0.6-0.2l-0.3-0.6l0.2,0.6c0.2-0.1,0.4-0.2,0.6-0.2L38,85.3
		l0.2,0.6c0.4-0.2,0.8-0.4,1.2-0.6l-0.3-0.5l0.3,0.6c0.2-0.1,0.3-0.2,0.4-0.3l-0.4-0.5l0.3,0.6c0.1-0.1,0.3-0.2,0.4-0.3l-0.4-0.5
		l0.3,0.5c0.1-0.1,0.2-0.2,0.4-0.3l-0.4-0.5l0.4,0.5c0.1-0.1,0.2-0.1,0.3-0.2l-0.4-0.5l0.4,0.5c0.1-0.1,0.2-0.2,0.3-0.3l-0.5-0.4
		l0.4,0.5c0.1-0.1,0.2-0.2,0.3-0.4l-0.5-0.4l0.5,0.4c0.1-0.1,0.1-0.2,0.2-0.3L41,83.2l0.5,0.4c0-0.1,0.1-0.1,0.2-0.3l-0.6-0.3
		l0.5,0.4c0.1-0.2,0.2-0.3,0.2-0.3l-0.6-0.3l0.6,0.3c0.1-0.2,0.1-0.3,0.2-0.4l0,0l0,0c0.1-0.2,0.1-0.5,0.1-0.7l-0.6,0l0.6,0.2
		c0-0.1,0-0.2,0-0.3h-1.3l0,0l0,0l0.3,0l-0.3-0.1l0,0.1l0.3,0l-0.3-0.1l0,0.1l0,0.1c0,0.1,0,0.2-0.1,0.4l0.6,0.2l-0.6-0.2
		c0,0.1-0.1,0.2-0.1,0.2l0,0l0,0c0,0.1-0.1,0.1-0.1,0.1l0,0l0,0.1l0.2,0.1l-0.2-0.1l0,0l0.2,0.1l-0.2-0.1l0,0l-0.1,0.1l0,0l0,0l0,0
		l0,0l0,0l0,0l0,0L40.3,83l0,0l0,0c-0.1,0.1-0.1,0.1-0.2,0.2l0,0l0,0l-0.1,0.1l0,0l0,0c-0.1,0.1-0.1,0.1-0.2,0.2l0,0l0,0l-0.2,0.1
		l0,0l0,0c-0.1,0-0.1,0.1-0.2,0.1l0,0l0,0c-0.1,0.1-0.1,0.1-0.2,0.1l0,0l0,0c-0.3,0.2-0.6,0.3-1,0.5l0,0l0,0
		c-0.2,0.1-0.3,0.1-0.5,0.2l0,0l0,0C37.1,85,37,85,36.8,85.1l0,0l0,0c-0.3,0.1-0.5,0.2-0.8,0.3l0.2,0.6v-0.6h0H36l-0.1,0
		c-0.3,0.1-0.6,0.2-0.9,0.2l0,0l0,0c-0.2,0.1-0.5,0.1-0.7,0.2l0,0l0,0c-0.6,0.1-1.2,0.2-1.8,0.3l0,0l0,0c-0.2,0-0.4,0.1-0.7,0.1
		l0.1,0.6l-0.1-0.6c-0.3,0-0.7,0.1-1,0.1l0.1,0.6l-0.1-0.6c-0.8,0.1-1.6,0.1-2.4,0.2l0,0c-0.5,0-1,0-1.4,0c-0.2,0-0.4,0-0.6,0l0,0h0
		c-0.2,0-0.4,0-0.5,0l0,0l0,0c-0.4,0-0.8,0-1.2-0.1l0,0l0,0c-0.4,0-0.8,0-1.1-0.1l0,0l0,0c-0.2,0-0.5,0-0.7-0.1l0,0l0,0
		c-0.2,0-0.4,0-0.6-0.1l0,0l0,0c-0.2,0-0.3,0-0.4-0.1l0,0l0,0c-0.3,0-0.5-0.1-0.8-0.1l0,0c-0.4-0.1-0.9-0.2-1.3-0.3l0,0l0,0
		c-0.2,0-0.4-0.1-0.5-0.1l0,0l0,0c-0.2,0-0.4-0.1-0.5-0.1l0,0l0,0c-0.2-0.1-0.4-0.1-0.6-0.2l0,0l0,0c-0.3-0.1-0.6-0.2-0.9-0.3l0,0
		l0,0c-0.1,0-0.2-0.1-0.4-0.1l0,0l0,0c-0.3-0.1-0.6-0.2-0.9-0.4l0,0l0,0c-0.1-0.1-0.3-0.1-0.4-0.2l0,0l0,0l-0.1-0.1l-0.3,0.6
		l0.3-0.5C15,84.1,14.9,84,14.8,84l0,0l0,0c-0.1-0.1-0.2-0.1-0.3-0.2l0,0l0,0c-0.1,0-0.2-0.1-0.3-0.2l0,0l0,0
		c-0.1-0.1-0.2-0.1-0.2-0.2l0,0l0,0c-0.1-0.1-0.1-0.1-0.2-0.2l0,0l0,0c-0.1-0.1-0.1-0.2-0.2-0.3l-0.5,0.4l0.5-0.4l0,0
		c0,0-0.1-0.1-0.1-0.2l-0.6,0.3l0.6-0.3c-0.1-0.2-0.1-0.3-0.2-0.5l0,0l0,0c0-0.1,0-0.1,0-0.2H11.9z"/>
	<polyline class="st1" points="13.2,81.9 13.2,77.2 11.9,77.2 11.9,81.9 	"/>
	<polygon class="st1" points="42.1,81.9 42.1,81.9 42.1,81.7 42.1,77.3 42.1,77.2 40.8,77.2 40.8,77.3 40.8,81.7 40.8,81.9 
		40.8,81.9 	"/>
</g>
</svg>
