<?xml version="1.0" encoding="UTF-8"?>
<svg id="Layer_1" data-name="Layer 1" xmlns="http://www.w3.org/2000/svg" viewBox="0 0 155.75 71.31">
  <defs>
    <style>
      .cls-1 {
        fill-rule: evenodd;
      }

      .cls-1, .cls-2 {
        fill: #fff;
        stroke-width: 0px;
      }
    </style>
  </defs>
  <g>
    <path class="cls-2" d="M77.32,68.91c0-1.33.93-2.23,2.2-2.23,1.13,0,1.97.74,2.18,1.79h-.89c-.17-.6-.66-1.02-1.28-1.02-.76,0-1.33.59-1.33,1.46s.57,1.46,1.34,1.46c.64,0,1.14-.39,1.29-1.02h.89c-.18,1.09-1.04,1.8-2.18,1.8-1.28,0-2.21-.91-2.21-2.24Z"/>
    <path class="cls-2" d="M86.5,68.91c0-1.33.93-2.23,2.26-2.23s2.26.9,2.26,2.23-.93,2.24-2.26,2.24-2.26-.91-2.26-2.24ZM88.76,70.38c.82,0,1.39-.59,1.39-1.47s-.57-1.46-1.39-1.46-1.39.59-1.39,1.46.57,1.47,1.39,1.47Z"/>
    <path class="cls-2" d="M96.02,66.74h1.17l1.55,3.21v-3.21h.85v4.35h-1.17l-1.55-3.21v3.21h-.85v-4.35Z"/>
    <path class="cls-2" d="M104.6,69.66h.88c0,.43.3.73.79.73.36,0,.64-.16.64-.49,0-.35-.33-.48-.79-.67-.79-.33-1.42-.55-1.42-1.33s.69-1.22,1.47-1.22c.9,0,1.44.57,1.44,1.37h-.84c0-.36-.24-.61-.61-.61-.34,0-.58.21-.58.46,0,.33.39.43,1,.66.71.27,1.22.56,1.22,1.3,0,.82-.64,1.28-1.51,1.28-1.01,0-1.67-.61-1.67-1.49Z"/>
    <path class="cls-2" d="M112.73,69.36v-2.62h.85v2.71c0,.55.39.93.94.93s.94-.39.94-.93v-2.71h.85v2.62c0,1.05-.73,1.79-1.78,1.79s-1.78-.74-1.78-1.79Z"/>
    <path class="cls-2" d="M121.47,66.74h.85v3.59h2.23v.76h-3.08v-4.35Z"/>
    <path class="cls-2" d="M129.74,67.49h-1.26v-.74h3.34v.74h-1.23v3.6h-.85v-3.6Z"/>
    <path class="cls-2" d="M136.72,66.74h.85v4.35h-.85v-4.35Z"/>
    <path class="cls-2" d="M142.79,66.74h1.17l1.55,3.21v-3.21h.85v4.35h-1.17l-1.55-3.21v3.21h-.85v-4.35Z"/>
    <path class="cls-2" d="M151.36,68.91c0-1.33.93-2.23,2.2-2.23,1.1,0,1.96.73,2.17,1.78h-.89c-.17-.6-.66-1.01-1.28-1.01-.76,0-1.33.59-1.33,1.46s.57,1.47,1.39,1.47c.63,0,1.13-.28,1.23-.73h-1.41v-.7h2.32c0,1.31-.86,2.2-2.13,2.2-1.33,0-2.26-.91-2.26-2.24Z"/>
  </g>
  <g>
    <path class="cls-1" d="M115.17,8.24l-20.9,15.41-5.21,9.04c1.06.19,2.11.41,3.16.66,2.98.75,5.79,1.8,8.59,3.05l9.09-17.74c1.45-2.76,2.88-5.54,4.29-8.33.19-.38.97-1.73,1.01-2.06l-.02-.03Z"/>
    <path class="cls-1" d="M46.1,8.21c.29.67.66,1.32.99,1.98.5,1,1.02,2,1.54,3l3.43,6.74,8.3,16.43c.75-.3,1.47-.66,2.22-.97,1.93-.8,4.48-1.69,6.53-2.08,1.03-.25,2.08-.43,3.12-.63l-4.54-8.73-21.58-15.73Z"/>
    <path class="cls-1" d="M92.06,22.85L80.67,0l-11.44,22.75c.88,1.52,1.66,3.09,2.47,4.65.86,1.66,1.76,3.31,2.58,5,2.11-.25,4.21-.43,6.33-.43,1.38,0,2.76.07,4.13.2.72.06,1.46.19,2.18.21,1.07-1.95,2.11-3.92,3.15-5.89.65-1.22,1.28-2.46,1.99-3.64Z"/>
    <polygon class="cls-1" points="72.22 11.95 63.56 5.46 59.16 15.14 67.72 21.2 72.22 11.95"/>
    <polygon class="cls-1" points="102.16 15.06 97.32 5.38 89.05 12.07 93.99 21.31 102.16 15.06"/>
  </g>
  <g>
    <path class="cls-2" d="M0,61.23v-1.22h2.4c1.34,0,2.01-.7,2.01-2.1v-24.82c0-.64-.17-1.15-.52-1.53s-.84-.57-1.48-.57H.09v-1.22h25.35l.65,9.38h-1.35l-.13-1.58c-.23-1.84-1.02-3.39-2.36-4.65-.81-.73-1.72-1.24-2.71-1.51-.99-.28-2.33-.42-4.02-.42h-5.11c-.87,0-1.31.44-1.31,1.31v11.35h2.78c1.97,0,3.48-.48,4.54-1.44,1.06-.96,1.59-2.33,1.59-4.1v-.7h1.18v13.75h-1.27l.09-1.09c0-.67-.11-1.32-.33-1.96-.22-.64-.52-1.18-.89-1.62-.47-.55-1.09-.96-1.88-1.22-.79-.26-1.8-.39-3.05-.39h-2.75v13.47c0,1.11.52,1.67,1.57,1.67h4.76c3.08,0,5.46-.76,7.14-2.27,1.67-1.51,2.51-3.75,2.51-6.72h1.31l-.74,10.21H0Z"/>
    <path class="cls-2" d="M27.8,40.41v-1.22h1.22l2.91-.13c.67,0,1.31-.07,1.93-.2.62-.13,1.12-.22,1.5-.28v3.49c1.61-2.33,3.75-3.49,6.42-3.49s4.34,1.12,5.36,3.36c1.65-2.24,3.72-3.36,6.22-3.36,1.71,0,3.06.47,4.04,1.4.99.93,1.48,2.19,1.48,3.76v14.21c0,1.37.65,2.05,1.96,2.05h1.31v1.22h-10.65v-1.22h1.31c1.19,0,1.79-.7,1.79-2.1v-12.86c0-.29,0-.61-.02-.96s-.07-.76-.17-1.25c-.1-.48-.42-.93-.96-1.33-.54-.41-1.19-.61-1.94-.61-1.22,0-2.25.45-3.1,1.36s-1.27,2.03-1.27,3.37v12.33c0,1.37.64,2.06,1.92,2.06h1.27v1.22h-10.56v-1.22h1.27c1.16,0,1.75-.68,1.75-2.05v-13.14c0-2.62-1.01-3.93-3.03-3.93-1.14,0-2.16.47-3.05,1.42s-1.34,2.01-1.34,3.21v12.44c0,1.37.63,2.05,1.88,2.05h1.27v1.22h-10.69v-1.22h1.28c1.3,0,1.95-.68,1.95-2.05v-15.53c0-1.34-.66-2.01-1.98-2.01h-1.25Z"/>
    <path class="cls-2" d="M60.44,71.31v-1.22h1.27c1.37,0,2.05-.67,2.05-2.01v-25.75c0-1.37-.69-2.05-2.08-2.05h-1.24v-1.22h7.68v3.88c1.43-2.88,3.58-4.32,6.46-4.32,2.39,0,4.36,1.05,5.91,3.16,1.56,2.11,2.33,4.79,2.33,8.05,0,3.43-.87,6.27-2.62,8.51-1.75,2.24-3.96,3.36-6.63,3.36-2.39,0-4.2-1.11-5.45-3.32v9.69c0,.61.18,1.09.55,1.46.36.36.84.54,1.42.54h1.27v1.22h-10.91ZM73.05,40.81c-1.4,0-2.57.65-3.51,1.94-.95,1.3-1.42,2.93-1.42,4.91v5.59c0,2.04.45,3.69,1.35,4.97.9,1.28,2.08,1.92,3.53,1.92,3.32,0,4.97-3.24,4.97-9.73s-1.64-9.6-4.93-9.6Z"/>
    <path class="cls-2" d="M82.96,40.41v-1.22h1.22l2.91-.13c.67,0,1.31-.07,1.93-.21.62-.14,1.12-.24,1.5-.31v5.11c.64-1.66,1.41-2.92,2.31-3.8.9-.87,1.92-1.31,3.05-1.31.99,0,1.83.35,2.53,1.05s1.05,1.57,1.05,2.62c0,.87-.25,1.62-.76,2.25s-1.1.94-1.77.94c-.55,0-1.03-.17-1.42-.5-.39-.33-.59-.73-.59-1.2,0-.32.07-.57.22-.74l.26-.7c0-.17-.09-.33-.26-.48s-.4-.22-.66-.22c-.97,0-1.91.92-2.82,2.75-.41.79-.71,1.57-.88,2.36-.18.79-.26,1.61-.26,2.49v8.82c0,1.37.68,2.05,2.03,2.05h1.24v1.22h-10.82v-1.22h1.27c1.31,0,1.96-.68,1.96-2.05v-15.5c0-1.36-.66-2.05-1.98-2.05h-1.25Z"/>
    <path class="cls-2" d="M118.83,50.41h-14.31v.26c0,1.1.04,1.94.13,2.52s.28,1.27.57,2.08c.58,1.65,1.31,2.84,2.18,3.56.87.72,2.04,1.09,3.49,1.09,1.66,0,3.03-.53,4.1-1.6,1.08-1.07,1.79-2.59,2.14-4.55h1.48c-.12,1.22-.33,2.17-.65,2.86-.67,1.59-1.7,2.84-3.1,3.73s-3.01,1.35-4.84,1.35c-2.91,0-5.31-1.08-7.2-3.25-1.89-2.16-2.84-4.93-2.84-8.3s.94-6.06,2.81-8.25c1.88-2.19,4.23-3.29,7.05-3.29,1.86,0,3.52.51,4.97,1.53,1.45,1.02,2.49,2.39,3.1,4.1.32.93.55,1.88.7,2.84.15.96.22,2.07.22,3.32ZM104.74,46.7l-.22,2.18h9.77v-.83c0-2.56-.4-4.55-1.21-5.98-.81-1.42-1.95-2.14-3.41-2.14-2.76,0-4.4,2.25-4.93,6.76Z"/>
    <path class="cls-2" d="M134.59,39.02l1.31.04v7.59h-1.31c0-2.05-.58-3.72-1.75-5.01-1.16-1.29-2.66-1.93-4.49-1.93-1.13,0-2.07.32-2.79.96s-1.09,1.46-1.09,2.45c0,.64.17,1.23.52,1.77.35.54.81.98,1.37,1.31.57.34,1.58.74,3.03,1.2,3.05.99,5.13,2,6.24,3.02,1.1,1.02,1.66,2.43,1.66,4.24,0,2.01-.68,3.69-2.05,5.03-1.37,1.34-3.07,2.01-5.11,2.01-.99,0-1.86-.13-2.62-.39-.76-.26-1.77-.79-3.05-1.57-.35-.23-.67-.35-.96-.35-.61,0-.92.61-.92,1.83h-1.22v-9.38h1.35c0,2.47.69,4.52,2.07,6.13,1.38,1.62,3.08,2.42,5.08,2.42,1.25,0,2.25-.35,3.01-1.05.76-.7,1.13-1.61,1.13-2.75s-.39-1.99-1.16-2.66c-.77-.67-2.18-1.34-4.21-2.01-2.85-.93-4.84-1.92-5.98-2.97-1.13-1.05-1.7-2.43-1.7-4.15,0-1.8.66-3.31,1.99-4.52,1.32-1.21,2.97-1.81,4.95-1.81,1.05,0,1.81.07,2.29.22.48.15,1.42.61,2.81,1.4.29.15.55.22.79.22.52,0,.79-.39.79-1.16v-.15Z"/>
    <path class="cls-2" d="M153.04,39.02l1.31.04v7.59h-1.31c0-2.05-.58-3.72-1.75-5.01-1.16-1.29-2.66-1.93-4.49-1.93-1.13,0-2.07.32-2.79.96s-1.09,1.46-1.09,2.45c0,.64.17,1.23.52,1.77.35.54.81.98,1.37,1.31.57.34,1.58.74,3.03,1.2,3.05.99,5.13,2,6.24,3.02,1.1,1.02,1.66,2.43,1.66,4.24,0,2.01-.68,3.69-2.05,5.03-1.37,1.34-3.07,2.01-5.11,2.01-.99,0-1.86-.13-2.62-.39-.76-.26-1.77-.79-3.05-1.57-.35-.23-.67-.35-.96-.35-.61,0-.92.61-.92,1.83h-1.22v-9.38h1.35c0,2.47.69,4.52,2.07,6.13,1.38,1.62,3.08,2.42,5.08,2.42,1.25,0,2.25-.35,3.01-1.05.76-.7,1.13-1.61,1.13-2.75s-.39-1.99-1.16-2.66c-.77-.67-2.18-1.34-4.21-2.01-2.85-.93-4.84-1.92-5.98-2.97-1.13-1.05-1.7-2.43-1.7-4.15,0-1.8.66-3.31,1.99-4.52,1.32-1.21,2.97-1.81,4.95-1.81,1.05,0,1.81.07,2.29.22.48.15,1.42.61,2.81,1.4.29.15.55.22.79.22.52,0,.79-.39.79-1.16v-.15Z"/>
  </g>
</svg>