<?xml version="1.0" encoding="utf-8"?>
<!-- Generator: Adobe Illustrator 28.1.0, SVG Export Plug-In . SVG Version: 6.00 Build 0)  -->
<svg version="1.1" id="Layer_1" xmlns="http://www.w3.org/2000/svg" xmlns:xlink="http://www.w3.org/1999/xlink" x="0px" y="0px"
	 viewBox="0 0 141.7 141.7" style="enable-background:new 0 0 141.7 141.7;" xml:space="preserve">
<style type="text/css">
	.st0{fill:#EF92FF;}
	.st1{fill:#FFFFFF;}
</style>
<g>
	<path class="st0" d="M131.4,140.7v-0.4h-121c-2.5,0-4.7-1-6.3-2.6s-2.6-3.9-2.6-6.3v-121c0-2.5,1-4.7,2.6-6.3S8,1.5,10.4,1.5h121
		c2.5,0,4.7,1,6.3,2.6s2.6,3.9,2.6,6.3v121c0,2.5-1,4.7-2.6,6.3s-3.9,2.6-6.3,2.6V140.7v0.4c5.4,0,9.8-4.4,9.8-9.8v-121
		c0-5.4-4.4-9.8-9.8-9.8h-121C5,0.6,0.6,5,0.6,10.4v121c0,5.4,4.4,9.8,9.8,9.8h121V140.7z"/>
	<polyline class="st1" points="17.2,100 17.2,100 17.2,101.2 17.2,101.2 	"/>
	<polyline class="st1" points="11.5,104.6 11.5,109.3 12.7,109.3 12.7,104.6 	"/>
	<polyline class="st1" points="10.5,96.3 10.5,101 11.8,101 11.8,96.3 	"/>
	<polyline class="st1" points="14.2,89.4 14.2,94 15.4,94 15.4,89.4 	"/>
	<path class="st1" d="M15.1,88.7c-0.7-0.4-1.2-0.8-1.5-1.2c-0.3-0.4-0.5-0.8-0.5-1.1h-1.3c0,0.7,0.3,1.3,0.7,1.9
		c0.5,0.6,1.1,1.1,1.8,1.5L15.1,88.7z"/>
	<polyline class="st1" points="11.9,81.7 11.9,86.4 13.2,86.4 13.2,81.7 	"/>
	<polyline class="st1" points="13.2,81.9 13.2,77.2 11.9,77.2 11.9,81.9 	"/>
</g>
<g>
	<g>
		<path class="st0" d="M89.2,21h0.7c0-4-3.2-7.2-7.2-7.2c-4,0-7.2,3.2-7.2,7.2c0,4,3.2,7.2,7.2,7.2c4,0,7.2-3.2,7.2-7.2H89.2h-0.7
			c0,1.6-0.7,3.1-1.7,4.1c-1.1,1.1-2.5,1.7-4.1,1.7c-1.6,0-3.1-0.7-4.1-1.7c-1.1-1.1-1.7-2.5-1.7-4.1c0-1.6,0.7-3.1,1.7-4.1
			c1.1-1.1,2.5-1.7,4.1-1.7c1.6,0,3.1,0.7,4.1,1.7c1.1,1.1,1.7,2.5,1.7,4.1H89.2z"/>
		<path class="st0" d="M69.1,42.5c0-5.4,3.1-10,7.6-12.2l-0.3-0.6l-0.3,0.6c2,1.1,4.2,1.7,6.6,1.7c2.4,0,4.7-0.6,6.6-1.7L89,29.6
			l-0.3,0.6c4.5,2.2,7.6,6.9,7.6,12.2c0,0.4,0.3,0.7,0.7,0.7c0.4,0,0.7-0.3,0.7-0.7c0-5.9-3.4-11-8.4-13.5L89,28.8L88.6,29
			c-1.8,1-3.8,1.5-6,1.5c-2.2,0-4.2-0.6-6-1.5l-0.3-0.2L76.1,29c-5,2.4-8.4,7.6-8.4,13.5c0,0.4,0.3,0.7,0.7,0.7
			C68.8,43.2,69.1,42.9,69.1,42.5L69.1,42.5z"/>
		<g>
			<path class="st0" d="M30.5,16l0.6,0.4c2.5-3.8,6.3-6.3,10.5-7.2C45.7,8.3,50.2,9,54,11.5c3.1,2,5.4,5,6.5,8.2l0.1,0.3l8.2,4
				l-7.7,5l-0.1,0.3c-0.4,1.8-1.2,3.6-2.2,5.2c-2.5,3.8-6.3,6.3-10.5,7.2c-4.2,0.9-8.6,0.2-12.5-2.3c-3.8-2.5-6.3-6.3-7.2-10.5
				c-0.9-4.2-0.2-8.6,2.3-12.5L30.5,16l-0.6-0.4c-5.4,8.3-3.1,19.5,5.2,24.9c8.3,5.4,19.5,3.1,24.9-5.2c1.2-1.8,2-3.7,2.4-5.6
				l-0.7-0.2l0.4,0.6l9.6-6.2l-10.2-5l-0.3,0.6l0.7-0.2c-1.3-3.5-3.7-6.7-7.1-8.9c-8.3-5.4-19.5-3.1-24.9,5.2L30.5,16z"/>
			<path class="st0" d="M38.1,21.4h14.8c0.4,0,0.7-0.3,0.7-0.7s-0.3-0.7-0.7-0.7H38.1c-0.4,0-0.7,0.3-0.7,0.7S37.7,21.4,38.1,21.4"
				/>
			<path class="st0" d="M38.1,26.5h14.8c0.4,0,0.7-0.3,0.7-0.7s-0.3-0.7-0.7-0.7l-14.8,0c-0.4,0-0.7,0.3-0.7,0.7
				S37.7,26.5,38.1,26.5"/>
			<path class="st0" d="M38.1,31.5h9.7c0.4,0,0.7-0.3,0.7-0.7s-0.3-0.7-0.7-0.7h-9.7c-0.4,0-0.7,0.3-0.7,0.7S37.7,31.5,38.1,31.5"/>
		</g>
	</g>
	<g>
		<path class="st1" d="M81.4,50v14.5c0,0.4,0.3,0.7,0.7,0.7s0.7-0.3,0.7-0.7V50c0-0.4-0.3-0.7-0.7-0.7S81.4,49.7,81.4,50"/>
		<path class="st1" d="M75.7,66.3l6.4,6.1l6.6-6.1c0.3-0.3,0.3-0.7,0-1c-0.3-0.3-0.7-0.3-1,0l-5.7,5.2l-5.4-5.2
			c-0.3-0.3-0.7-0.3-1,0C75.5,65.6,75.5,66.1,75.7,66.3z"/>
	</g>
	<g>
		<path class="st1" d="M106.4,131.5c0.4,0.4,1,0.3,1.3-0.2l3.1-6.3c0.2-0.4,0-0.9-0.4-1.1c-0.4-0.2-0.9,0-1.1,0.4l-2.7,5.3l-2.4-2.4
			c-0.3-0.3-0.8-0.3-1.1,0c-0.3,0.3-0.3,0.8,0,1.1L106.4,131.5z"/>
		<path class="st1" d="M94.9,124.1c-0.3-0.3-0.8-0.3-1.1,0c-0.3,0.3-0.3,0.8,0,1.1l1.8,1.8h-17c-11.7,0-21.2-9.5-21.2-21.2V86.9
			c0-0.4-0.4-0.8-0.8-0.8c-0.4,0-0.8,0.4-0.8,0.8v18.9c0,12.6,10.2,22.8,22.8,22.8h17l-1.8,1.8c-0.3,0.3-0.3,0.8,0,1.1
			c0.3,0.3,0.8,0.3,1.1,0l3.1-3.1c0.3-0.3,0.3-0.8,0-1.1L94.9,124.1z"/>
		<path class="st1" d="M107,119.2c0.4,0,0.8-0.4,0.8-0.8V99.5c0-12.6-10.2-22.8-22.8-22.8h-17l1.8-1.8c0.3-0.3,0.3-0.8,0-1.1
			c-0.3-0.3-0.8-0.3-1.1,0l-3.1,3.1c-0.3,0.3-0.3,0.8,0,1.1l3.1,3.1c0.3,0.3,0.8,0.3,1.1,0c0.3-0.3,0.3-0.8,0-1.1l-1.8-1.8h17
			c11.7,0,21.2,9.5,21.2,21.2v18.9C106.2,118.8,106.5,119.2,107,119.2z"/>
		<path class="st0" d="M63.7,107.4c0,3.9,2.7,7.4,6.4,8.4c-0.1,0.3-0.1,0.7-0.1,1.1c0,3,2.5,5.5,5.5,5.5c3,0,5.5-2.5,5.5-5.5V88.5
			c0-3-2.5-5.5-5.5-5.5c-3,0-5.5,2.5-5.5,5.5c0,0.6,0.1,1.2,0.3,1.8c-2.1,1.3-3.5,3.6-3.5,6.1c0,1.3,0.4,2.5,1,3.6
			C65.3,101.5,63.7,104.3,63.7,107.4z M72.3,100.3c0.4,0,0.8-0.4,0.8-0.8s-0.4-0.8-0.8-0.8c-1.1,0-2.1,0.2-3.1,0.6
			c-0.6-0.9-0.9-1.9-0.9-2.9c0-2.1,1.3-4.1,3.2-5c0.7-0.3,1.4-0.5,2.3-0.5c0.4,0,0.8-0.4,0.8-0.8c0-0.4-0.4-0.8-0.8-0.8
			c-0.8,0-1.5,0.1-2.2,0.3c-0.1-0.4-0.2-0.7-0.2-1.1c0-2.2,1.8-3.9,3.9-3.9c2.2,0,3.9,1.8,3.9,3.9v6.3c-0.7-0.5-1.5-0.8-2.4-0.8
			c-0.4,0-0.8,0.4-0.8,0.8s0.4,0.8,0.8,0.8c1.3,0,2.4,1.1,2.4,2.4v7.2c-1-1-2.4-1.7-3.9-1.7c-3,0-5.5,2.5-5.5,5.5
			c0,0.4,0.4,0.8,0.8,0.8s0.8-0.4,0.8-0.8c0-2.2,1.8-3.9,3.9-3.9c2.2,0,3.9,1.8,3.9,3.9v7.9c0,2.2-1.8,3.9-3.9,3.9
			c-2.2,0-3.9-1.8-3.9-3.9c0-2.2,1.8-3.9,3.9-3.9c0.4,0,0.8-0.4,0.8-0.8s-0.4-0.8-0.8-0.8c-2.1,0-3.9,1.2-4.9,2.9
			c-3.1-0.8-5.4-3.6-5.4-6.9C65.3,103.5,68.3,100.3,72.3,100.3z"/>
		<path class="st0" d="M95.7,100c0.7-1.1,1-2.3,1-3.6c0-2.5-1.3-4.8-3.5-6.1c0.2-0.6,0.3-1.2,0.3-1.8c0-3-2.5-5.5-5.5-5.5
			c-3,0-5.5,2.5-5.5,5.5v28.3c0,3,2.5,5.5,5.5,5.5c3,0,5.5-2.5,5.5-5.5c0-0.4,0-0.7-0.1-1.1c3.7-1,6.4-4.4,6.4-8.4
			C99.9,104.3,98.3,101.5,95.7,100z M92.9,114.2c-0.9-1.7-2.8-2.9-4.9-2.9c-0.4,0-0.8,0.4-0.8,0.8s0.4,0.8,0.8,0.8
			c2.2,0,3.9,1.8,3.9,3.9c0,2.2-1.8,3.9-3.9,3.9c-2.2,0-3.9-1.8-3.9-3.9v-7.9c0-2.2,1.8-3.9,3.9-3.9c2.2,0,3.9,1.8,3.9,3.9
			c0,0.4,0.4,0.8,0.8,0.8c0.4,0,0.8-0.4,0.8-0.8c0-3-2.5-5.5-5.5-5.5c-1.5,0-2.9,0.6-3.9,1.7v-7.2c0-1.3,1.1-2.4,2.4-2.4
			c0.4,0,0.8-0.4,0.8-0.8S86.9,94,86.5,94c-0.9,0-1.7,0.3-2.4,0.8v-6.3c0-2.2,1.8-3.9,3.9-3.9c2.2,0,3.9,1.8,3.9,3.9
			c0,0.4-0.1,0.8-0.2,1.1c-0.7-0.2-1.4-0.3-2.2-0.3c-0.4,0-0.8,0.4-0.8,0.8c0,0.4,0.4,0.8,0.8,0.8c0.8,0,1.6,0.2,2.3,0.5
			c2,0.9,3.2,2.9,3.2,5c0,1.1-0.3,2.1-0.9,2.9c-0.9-0.4-2-0.6-3.1-0.6c-0.4,0-0.8,0.4-0.8,0.8s0.4,0.8,0.8,0.8c4,0,7.1,3.3,7.1,7.1
			C98.3,110.6,96,113.5,92.9,114.2z"/>
		<path class="st1" d="M60.1,73.6c-0.4-0.2-0.9,0-1.1,0.4l-2.7,5.3L54,76.9c-0.3-0.3-0.8-0.3-1.1,0c-0.3,0.3-0.3,0.8,0,1.1l3.1,3.1
			c0.4,0.4,1,0.3,1.3-0.2l3.1-6.3C60.6,74.3,60.5,73.8,60.1,73.6z"/>
		<path class="st1" d="M50.3,84.5h12.6c0.4,0,0.8-0.4,0.8-0.8V71.2c0-0.4-0.4-0.8-0.8-0.8H50.3c-0.4,0-0.8,0.4-0.8,0.8v12.6
			C49.5,84.2,49.9,84.5,50.3,84.5z M51.1,71.9h11v11h-11V71.9z"/>
		<path class="st1" d="M113.2,120.7h-12.6c-0.4,0-0.8,0.4-0.8,0.8v12.6c0,0.4,0.4,0.8,0.8,0.8h12.6c0.4,0,0.8-0.4,0.8-0.8v-12.6
			C114,121.1,113.7,120.7,113.2,120.7z M112.5,133.3h-11v-11h11V133.3z"/>
	</g>
</g>
</svg>
